<svg version="1.1" id="Layer_1" xmlns="http://www.w3.org/2000/svg" xmlns:xlink="http://www.w3.org/1999/xlink" x="0px" y="0px"
	 width="100%" viewBox="0 0 550 550" enable-background="new 0 0 550 550" xml:space="preserve">
<path fill="#F2F2F2" opacity="1.000000" stroke="none" 
	d="
M1.000000,203.000000 
	C1.000000,136.681610 1.030662,70.863167 0.910329,5.044991 
	C0.904251,1.720600 1.437296,0.897774 4.953420,0.899986 
	C185.578995,1.013580 366.204681,1.016713 546.830261,0.886735 
	C550.657654,0.883981 551.079651,1.944823 551.078003,5.328445 
	C550.989746,185.787445 550.988342,366.246460 551.086609,546.705444 
	C551.088501,550.187134 550.526978,551.108582 546.796387,551.106079 
	C366.337402,550.984680 185.878357,550.983948 5.419407,551.105713 
	C1.489931,551.108398 0.911512,550.022461 0.914780,546.421326 
	C1.018513,432.114288 1.000000,317.807129 1.000000,203.000000 
z"/>
<path fill="#EDEEEC" opacity="1.000000" stroke="none" 
	d="
M199.153778,179.752838 
	C197.493164,181.638062 196.432098,180.214462 195.873917,179.203125 
	C191.176712,170.692642 186.205139,162.387390 183.013474,153.041626 
	C179.234695,141.976715 176.161942,130.641434 176.562393,119.167221 
	C176.936432,108.449745 176.382599,96.727654 185.675171,88.065765 
	C186.016998,88.013954 186.204834,88.335648 186.109375,88.176102 
	C187.244278,79.921387 192.137848,73.874008 197.416550,68.149109 
	C204.168793,60.826118 211.337509,53.909992 219.885132,48.654346 
	C223.601440,46.369316 227.128906,43.983322 231.455505,42.415112 
	C235.066544,41.106262 238.322220,37.863522 242.341934,36.185116 
	C252.471329,31.955650 262.841919,28.108788 273.591980,26.615173 
	C281.508728,25.515213 289.417847,23.458364 297.603333,23.908808 
	C302.876495,24.198990 308.134918,22.987152 313.470093,22.889719 
	C325.162201,22.676193 336.579041,24.662546 348.079956,26.159697 
	C357.102966,27.334272 366.142700,28.179863 374.942932,30.770514 
	C389.285522,34.992752 403.260101,39.654945 416.460846,47.189369 
	C425.302490,52.235817 433.150024,58.414940 441.569733,63.890942 
	C451.657532,70.451828 459.600677,79.245033 466.925781,88.406723 
	C474.933411,98.422127 481.899261,109.476730 485.692749,121.854477 
	C491.822906,141.856506 492.970734,161.993637 486.972626,182.563492 
	C484.378754,191.458908 478.118683,197.348251 473.457367,204.521698 
	C471.550934,207.455551 470.062317,210.190109 470.046844,213.538239 
	C470.013153,220.824936 467.459503,227.233292 464.910065,233.987976 
	C461.960571,241.802567 458.045044,249.041275 453.307678,255.472275 
	C446.845062,264.245361 438.692841,272.318573 427.116577,273.776367 
	C416.720184,275.085571 409.689880,269.638062 405.249054,260.348236 
	C401.258270,251.999893 403.179565,243.115631 403.019226,234.429733 
	C402.900330,227.989944 399.977814,225.413315 394.003662,227.670898 
	C390.034332,229.170868 386.194733,228.208862 382.359406,228.418304 
	C373.533875,228.900238 364.765442,229.798309 356.015350,230.882401 
	C351.548370,231.435837 349.953796,233.666946 350.512451,238.823898 
	C351.286163,245.965988 350.587036,253.325378 348.799164,260.427032 
	C347.184875,266.839142 347.350677,273.468719 348.339264,279.749725 
	C350.368011,292.639740 349.491730,305.295166 348.367462,318.171143 
	C347.206848,331.463593 342.539917,343.375763 336.476593,354.773956 
	C325.593567,375.232635 308.663422,387.968628 285.598663,392.086853 
	C284.458710,392.290405 283.354889,392.689240 282.225983,392.963104 
	C273.239502,395.142883 274.091034,395.308258 276.074554,404.221741 
	C277.411255,410.228455 278.602600,416.609344 276.635010,423.581268 
	C273.657135,434.132843 265.653900,437.574066 257.468689,441.689087 
	C252.633224,444.120087 249.859482,447.821869 247.428223,453.033112 
	C243.019547,462.482849 242.574020,471.738464 243.936279,481.618927 
	C244.396042,484.953552 246.831284,487.189453 247.269653,490.739319 
	C248.545105,501.068207 243.177261,512.835327 232.688919,516.845886 
	C227.615799,518.785828 222.805588,520.263306 217.408829,520.017578 
	C203.896057,519.402283 190.935486,520.975708 178.413666,527.004028 
	C171.028030,530.559753 162.362183,529.459595 154.292953,528.828613 
	C146.051590,528.184265 138.131866,525.699951 130.891235,521.450806 
	C128.299454,519.929871 125.569572,518.588379 124.887741,515.221191 
	C124.794464,514.760559 124.539169,514.125061 124.178574,513.956665 
	C116.266655,510.261780 117.426109,502.832672 116.625076,496.112122 
	C116.157776,492.191498 114.531570,488.935944 110.411522,487.203918 
	C101.487061,483.452148 92.966820,478.225403 86.706436,471.289734 
	C80.660423,464.591522 74.371658,457.905548 70.161728,449.062134 
	C64.123558,436.378357 60.693485,423.722412 61.114174,409.989532 
	C61.376881,401.414001 62.916798,393.009979 65.758537,384.707550 
	C69.860863,372.722137 76.436371,362.607971 86.175537,354.846832 
	C89.720543,352.021790 94.536690,350.182617 99.490059,350.016266 
	C101.820091,349.938019 104.219788,349.647614 106.476067,350.062134 
	C115.500305,351.720154 117.777100,344.370667 116.175270,336.339600 
	C115.726189,334.088043 114.638214,331.958405 113.792007,329.792877 
	C112.529373,326.561676 111.814568,322.445160 113.418381,320.075317 
	C118.775566,312.159271 115.349350,304.480865 114.127533,296.664459 
	C113.389801,291.944916 114.532913,287.610413 117.630615,284.095703 
	C121.913773,279.235992 121.959564,273.521759 120.365112,268.115662 
	C117.487679,258.359406 124.704002,245.534653 133.829758,242.179428 
	C134.296799,242.007690 134.821060,241.979675 135.273239,241.781219 
	C141.357895,239.110703 147.291153,237.892792 147.941666,228.299896 
	C148.623123,218.251022 156.545563,211.340179 166.793961,208.785156 
	C169.546066,208.099030 172.763580,208.457901 175.598450,209.092239 
	C182.011703,210.527237 187.924377,209.763336 194.029099,207.309219 
	C198.639450,205.455826 203.831955,205.864670 208.831650,205.970978 
	C210.473816,206.005890 212.164993,205.875809 213.755951,205.495651 
	C215.007523,205.196579 216.347595,204.598099 216.730270,203.108597 
	C217.197189,201.291306 215.465378,201.102676 214.567230,200.233047 
	C210.192810,195.997543 205.663834,191.881439 202.069122,186.937195 
	C201.177994,185.711502 199.921783,184.300674 200.748581,182.212997 
	C200.985382,182.001831 201.234848,181.671143 201.424759,181.593216 
	C201.614670,181.515289 201.558075,181.103745 201.483002,180.907669 
	C201.407913,180.711594 201.267807,180.313721 201.128113,180.155701 
	C200.988419,179.997696 201.001602,179.999588 200.999695,180.006165 
	C200.487320,179.664612 200.163818,178.665146 199.153778,179.752838 
z"/>
<path fill="#DEDEDE" opacity="1.000000" stroke="none" 
	d="
M199.334152,179.989502 
	C198.747208,178.937012 197.242111,177.532867 198.518082,176.962906 
	C199.888107,176.350967 200.493378,178.133759 200.965302,179.685806 
	C200.554108,180.008636 200.110443,180.004547 199.334152,179.989502 
z"/>
<path fill="#DEDEDE" opacity="1.000000" stroke="none" 
	d="
M200.983368,180.331696 
	C201.313797,180.463440 201.639160,180.929199 201.976425,181.705078 
	C201.821213,182.013138 201.654114,182.011063 201.236206,182.005402 
	C200.983032,181.556458 200.980682,181.111084 200.983368,180.331696 
z"/>
<path fill="#19AC69" opacity="1.000000" stroke="none" 
	d="
M148.583649,313.678864 
	C148.954849,311.462616 149.015244,309.608673 148.990509,307.297760 
	C148.320374,306.236969 147.727798,305.517365 147.784393,304.706451 
	C148.226700,298.368683 147.562805,291.902252 150.072815,285.361176 
	C150.621414,282.949982 150.991898,280.953400 151.383545,278.518433 
	C151.734421,270.386627 154.963959,263.832092 159.687515,257.525391 
	C161.643951,255.335037 163.302444,253.366516 165.148605,251.096130 
	C171.515274,242.416946 180.396988,239.641708 190.578430,238.871902 
	C202.576996,238.244232 214.216644,238.103531 225.864288,238.195770 
	C250.163834,238.388229 274.446777,238.998550 298.489655,242.899033 
	C317.902435,246.048386 326.326111,254.303970 328.511719,273.921783 
	C330.615967,292.809662 330.784088,311.803497 325.544708,330.733185 
	C320.424408,333.717712 314.924408,332.639862 309.728638,333.306213 
	C296.676819,334.980194 283.488342,334.957153 270.373596,334.401245 
	C256.502869,333.813354 242.894852,331.497589 230.746185,324.011810 
	C225.096405,320.530548 220.567261,316.008881 217.843491,309.858826 
	C216.602951,307.057800 215.858444,304.220428 217.981979,301.005981 
	C214.353745,300.281860 211.476196,301.015991 207.772186,303.402130 
	C213.448807,302.743347 215.240402,305.569855 215.859985,310.011017 
	C215.529892,313.001007 214.404877,315.402130 213.789108,317.942535 
	C212.813095,321.969116 213.340134,322.605682 217.432602,322.504578 
	C219.395966,322.456085 221.302353,321.786438 223.643112,322.063599 
	C224.453506,322.328156 224.865479,322.580353 225.445648,323.200806 
	C226.840668,326.257263 226.141632,329.051086 225.812592,331.848175 
	C225.537445,334.187408 226.543472,334.984039 228.740891,334.053223 
	C231.344177,332.950378 233.759659,331.443695 236.767944,330.361359 
	C238.152481,330.148712 239.055954,330.457092 240.122269,331.334900 
	C241.649643,333.765961 241.979782,336.268555 242.750336,338.614777 
	C243.714005,341.548981 245.161652,341.873260 247.407684,339.930389 
	C249.509003,338.112732 251.072723,335.593079 254.391296,334.737549 
	C266.230042,334.756866 277.657288,335.473816 289.116211,335.355255 
	C298.597687,335.257080 308.006134,334.231934 317.457855,333.822632 
	C319.449615,333.736389 321.431732,333.321991 323.629211,334.709534 
	C318.007629,354.973175 305.107605,367.747253 284.845856,372.842010 
	C274.143097,375.533203 263.202454,375.929169 252.230682,375.930939 
	C242.617142,375.932526 242.571915,375.953552 241.364075,385.684235 
	C241.017822,388.473816 241.015686,391.306122 240.901123,394.574677 
	C242.024719,400.304382 241.376007,405.365479 238.728119,410.476410 
	C234.261871,412.216705 230.148590,410.778015 226.139557,410.326935 
	C219.923172,409.627533 213.963501,410.347260 207.593445,411.717712 
	C204.671051,412.060608 202.783081,410.721100 200.923859,409.259155 
	C196.608353,405.865723 192.458282,402.271118 188.189224,398.820526 
	C185.191071,396.397156 182.538239,396.309235 180.005096,399.390015 
	C179.689514,399.773834 179.312012,400.107697 178.976593,400.477356 
	C172.181244,407.966949 172.314117,408.482513 179.630295,415.415924 
	C181.909973,417.576324 185.627167,418.808167 185.475204,423.237976 
	C183.586914,426.451813 180.936172,428.513977 178.639877,430.896179 
	C166.835007,443.143005 161.798630,458.426697 158.900482,474.683105 
	C158.372986,477.641937 159.922958,478.422485 162.541245,478.569916 
	C166.811340,478.810364 171.176727,477.750793 175.603394,479.717072 
	C175.847977,484.000305 175.835922,488.002930 175.806778,492.463257 
	C175.719559,493.114929 175.649399,493.308899 175.713974,493.781464 
	C177.908661,496.785706 181.094666,498.825562 179.348541,503.322144 
	C178.373581,505.832855 177.376083,507.308990 174.703766,507.620056 
	C163.306366,508.946808 152.156952,507.986511 141.301346,504.147125 
	C137.745773,502.889648 135.797287,500.483337 136.106598,496.609985 
	C136.476532,491.977386 136.403412,487.214539 137.529404,482.762848 
	C138.751236,477.932373 136.966125,476.545258 132.688675,475.288116 
	C111.132500,468.952759 94.867523,456.265472 86.035286,435.084015 
	C77.655586,414.987793 77.731140,395.627258 91.239700,377.507782 
	C93.863617,373.988251 96.971375,370.979462 101.270737,369.612976 
	C105.985298,368.114532 108.697716,369.465576 110.084084,374.177490 
	C110.717735,378.414764 110.944527,382.221497 109.344299,386.250916 
	C108.991951,388.855164 108.932724,391.168335 108.963165,393.970459 
	C111.195129,398.156494 110.578705,402.494781 111.717247,406.774323 
	C112.066200,409.811707 113.391235,412.068573 115.203354,414.519897 
	C119.465073,417.537750 122.538467,421.319611 126.493973,424.532654 
	C129.243011,426.366943 129.838181,425.069366 130.302322,422.580750 
	C132.919708,408.546722 138.504776,395.707245 146.491669,383.483826 
	C147.953217,378.510529 146.919373,373.623627 148.347260,368.635864 
	C148.620987,366.775360 148.684219,365.254364 148.650894,363.284790 
	C147.383530,361.319214 147.634903,359.522278 147.544235,357.356079 
	C147.286316,353.757446 147.408249,350.590759 147.557083,346.993134 
	C147.695480,345.980164 147.861618,345.425507 148.349182,344.527405 
	C148.735107,341.576752 148.890305,338.996674 148.972855,335.931427 
	C146.051407,328.388641 147.065353,321.217743 148.583649,313.678864 
z"/>
<path fill="#FAFAFA" opacity="1.000000" stroke="none" 
	d="
M424.934265,253.367554 
	C429.059204,238.383316 431.425354,223.559158 429.937225,208.364655 
	C429.324463,202.108200 427.181885,196.297348 422.653229,190.772278 
	C422.276825,193.968979 423.443695,196.071060 424.253357,198.123291 
	C425.531097,201.362045 424.716705,202.932693 421.426270,204.091110 
	C414.614990,206.489014 407.506317,207.245819 400.455048,207.887680 
	C388.587128,208.967957 376.794647,211.014969 364.933655,211.632446 
	C351.014984,212.357040 337.036041,212.549591 323.058044,211.323044 
	C313.316071,210.468201 303.620209,209.388916 293.956207,207.987366 
	C280.489502,206.034317 267.472046,202.323547 254.518372,198.180130 
	C247.765945,196.020279 241.159576,193.473862 234.923965,190.364853 
	C217.784088,181.819077 208.149170,166.662567 201.012375,149.588303 
	C197.523193,141.240662 195.283020,132.528290 195.098206,123.535110 
	C194.746063,106.398872 201.599564,91.895515 213.036804,79.538513 
	C228.554749,62.772621 248.293503,53.663727 270.133331,48.025543 
	C291.358551,42.546017 312.955841,41.841774 334.450867,43.306038 
	C357.483856,44.875072 379.746765,50.761032 400.631042,61.220448 
	C414.797974,68.315643 427.813721,76.748245 439.498871,87.653435 
	C449.266541,96.769173 457.060150,107.153198 462.968567,118.788155 
	C470.470001,133.560165 472.622437,149.419479 470.377747,166.085922 
	C469.115753,175.456085 466.006042,183.683884 460.796082,191.319534 
	C459.694153,192.934540 458.568085,194.941147 456.264648,194.772522 
	C453.744080,194.587982 454.361176,192.051712 453.604401,190.525848 
	C452.905212,189.116119 451.990143,187.813446 450.506866,186.533218 
	C453.127258,197.542480 452.240265,208.374023 450.005920,219.585419 
	C450.878662,223.926910 448.770935,227.081467 447.199738,230.310318 
	C443.184570,238.561630 438.004639,246.009369 431.174927,252.197952 
	C429.454376,253.756958 427.705658,256.203278 424.934265,253.367554 
z"/>
<path fill="#73C69E" opacity="1.000000" stroke="none" 
	d="
M205.669724,411.283508 
	C216.080200,406.748169 226.581177,408.700531 237.494507,410.069580 
	C240.300720,412.835083 239.830917,415.888611 238.480286,419.361816 
	C235.484940,423.194550 235.895554,427.583801 234.705963,431.499573 
	C231.792297,441.090393 228.240479,450.359985 221.930176,458.732788 
	C220.661423,460.467651 219.909714,462.145477 218.503021,463.796143 
	C209.227142,471.593323 199.356918,477.389160 187.016022,478.544373 
	C183.365448,478.945282 180.055618,479.477203 176.302917,480.003418 
	C171.053986,479.999725 166.236176,479.795227 161.445557,480.068024 
	C157.481430,480.293732 156.485840,478.648529 157.144226,475.064758 
	C160.853043,454.876862 168.081329,436.561462 184.799805,422.870667 
	C190.471191,422.757568 193.210083,427.429413 197.519363,430.079041 
	C198.978195,432.019989 199.431305,436.129303 202.814941,431.672668 
	C207.753311,430.362640 211.813095,428.641327 212.140778,422.574097 
	C213.706833,420.450806 215.325500,418.603363 210.970673,417.925110 
	C208.340866,416.258331 206.469254,414.363281 205.669724,411.283508 
z"/>
<path fill="#F3F3F3" opacity="1.000000" stroke="none" 
	d="
M424.627258,253.039276 
	C426.386475,254.648041 427.617249,253.782990 428.782135,252.687073 
	C438.355286,243.680878 445.833618,233.325363 449.725006,220.249725 
	C451.795441,220.182785 453.135925,219.397308 454.385437,218.141281 
	C459.058807,213.443619 463.620087,208.667862 467.066803,202.943344 
	C467.798035,201.728897 468.675842,199.737732 470.295074,200.698044 
	C471.813446,201.598557 470.136627,202.934097 469.591309,204.061340 
	C467.646393,208.081741 466.951569,212.212936 466.623047,216.790054 
	C466.239410,222.135513 464.254608,227.563034 461.977844,232.670013 
	C455.611206,246.951157 448.003357,260.197876 433.552002,267.946014 
	C432.539093,268.489075 431.486847,268.958771 430.229462,269.720123 
	C426.987183,271.053925 423.877411,270.281372 420.402649,270.209137 
	C419.992371,269.988617 419.998901,270.002014 420.006409,270.001343 
	C419.313141,269.263489 418.347076,269.597748 417.255493,269.177368 
	C415.138458,267.026031 415.086609,265.243225 416.903778,263.054382 
	C419.538788,259.880371 421.834290,256.424500 424.627258,253.039276 
z"/>
<path fill="#0C8F5E" opacity="1.000000" stroke="none" 
	d="
M186.686035,478.842285 
	C197.869934,475.217224 208.640823,471.173431 217.647415,462.842224 
	C223.459702,461.466278 221.390488,465.986176 222.313538,468.755310 
	C222.598419,470.812714 222.766083,472.477600 222.938416,474.564453 
	C222.829285,475.165558 222.715485,475.344635 222.820023,475.755249 
	C223.072037,476.431458 223.105713,476.876068 223.100647,477.653687 
	C223.035980,478.652679 223.112549,479.291656 223.806396,480.050964 
	C224.199921,480.446167 224.337097,480.625763 224.618225,481.115417 
	C225.050247,482.328949 225.048447,483.240448 224.712738,484.485413 
	C224.452591,485.004150 224.317093,485.195129 223.913010,485.611938 
	C218.074249,489.112457 215.490326,495.124664 210.866852,499.747650 
	C210.406250,500.111145 210.199097,500.226562 209.642288,500.408905 
	C207.416016,501.080353 205.525375,500.420288 203.326752,500.703125 
	C198.375259,501.530060 194.230881,499.662262 190.100357,498.116791 
	C186.559113,496.791870 186.254059,493.372589 186.244766,490.177887 
	C186.234192,486.542786 186.532669,482.906799 186.686035,478.842285 
z"/>
<path fill="#F5F5F5" opacity="1.000000" stroke="none" 
	d="
M205.436600,516.207520 
	C207.859711,511.355408 212.512543,508.475433 216.134979,504.591156 
	C217.014984,503.647552 218.097580,502.897247 218.854187,501.410461 
	C219.393143,500.481903 220.011612,500.251556 221.030426,500.139130 
	C222.545120,500.211456 223.801605,500.787842 225.037231,499.422485 
	C225.836395,498.569611 226.403061,497.928314 227.096741,496.954865 
	C229.169266,489.777100 234.976761,485.853424 239.655869,480.908325 
	C241.155090,483.516907 242.311081,486.031494 243.730011,488.771973 
	C245.034912,492.019501 244.291840,495.125763 244.204041,498.597900 
	C242.057510,502.178284 241.313004,505.949524 238.716125,508.805267 
	C235.383636,512.469910 231.229385,514.461121 226.246964,515.729248 
	C219.309250,517.084351 212.575607,516.262329 205.436600,516.207520 
z"/>
<path fill="#0E754E" opacity="1.000000" stroke="none" 
	d="
M324.198090,334.768524 
	C311.390076,335.764923 298.865417,337.152039 286.239502,337.085022 
	C275.444305,337.027710 264.663818,336.939453 253.450256,335.975708 
	C248.445114,335.721527 243.989120,335.119110 239.808685,332.140686 
	C238.921280,331.614777 238.383209,331.279816 237.601974,330.934570 
	C232.391571,330.659760 228.818192,327.828339 225.268463,324.229156 
	C224.785629,323.678711 224.552048,323.393494 224.054016,323.010895 
	C219.440506,320.357025 216.623627,316.589935 215.029755,311.500427 
	C214.597900,309.907288 214.143387,308.669769 213.771149,307.407959 
	C213.072342,305.039001 212.121399,303.466522 209.324112,305.258820 
	C208.083344,306.053772 206.329620,306.773041 205.417084,304.993561 
	C204.538925,303.281158 206.143051,302.221161 207.376205,301.456757 
	C210.893143,299.276581 214.803329,298.587830 218.866180,299.107727 
	C221.160172,299.401306 221.943100,301.678436 220.121857,302.411652 
	C215.798889,304.152039 218.125671,306.672668 218.949539,308.699310 
	C222.792892,318.153473 230.642212,323.510071 239.635040,326.924316 
	C250.525604,331.059113 261.967896,332.755219 273.689423,333.103119 
	C290.648712,333.606415 307.460815,331.470154 324.841980,331.007568 
	C325.029999,332.182434 324.732910,333.339172 324.198090,334.768524 
z"/>
<path fill="#13905E" opacity="1.000000" stroke="none" 
	d="
M238.480225,419.893677 
	C238.129608,416.795715 238.083237,413.865540 237.979462,410.495850 
	C240.033722,405.463348 239.488464,400.413422 240.676086,395.322754 
	C245.889557,398.669922 250.379395,402.795959 254.812057,407.053131 
	C258.900665,410.979889 257.272461,415.040222 256.117554,419.100098 
	C255.478210,421.347534 247.154388,424.654572 244.629547,423.711731 
	C242.520874,422.924316 240.721069,421.309753 238.480225,419.893677 
z"/>
<path fill="#ECDA44" opacity="1.000000" stroke="none" 
	d="
M190.878220,238.626785 
	C181.849106,241.218506 172.845352,243.692398 165.616653,250.692001 
	C164.773422,244.635803 165.074432,238.567368 166.720062,232.551117 
	C168.248474,226.963348 170.218781,225.858414 175.675003,228.134506 
	C181.386642,230.517136 186.399078,233.969131 190.878220,238.626785 
z"/>
<path fill="#ECDA44" opacity="1.000000" stroke="none" 
	d="
M159.534668,257.216248 
	C156.664230,263.811249 153.613724,270.427643 151.629211,277.820984 
	C145.657043,275.770782 142.649643,270.598999 139.491608,265.886993 
	C137.437637,262.822388 139.514618,260.257477 142.905075,259.093781 
	C148.159531,257.290375 153.564102,256.739502 159.534668,257.216248 
z"/>
<path fill="#EFDA41" opacity="1.000000" stroke="none" 
	d="
M148.543259,313.320312 
	C148.944473,320.422699 148.994476,327.528870 148.972351,335.040649 
	C143.204193,334.339325 138.472565,331.210571 133.909622,327.926910 
	C129.930435,325.063416 130.054459,322.465790 134.175598,319.788239 
	C138.511597,316.971161 143.293045,314.988647 148.543259,313.320312 
z"/>
<path fill="#ECDA44" opacity="1.000000" stroke="none" 
	d="
M149.923904,285.015747 
	C149.856339,291.964813 149.461777,298.983063 148.986313,306.421051 
	C143.566086,305.433563 139.019638,302.493622 134.848862,299.064331 
	C131.840881,296.591187 132.262924,293.700287 135.772644,291.425323 
	C140.055130,288.649414 144.573776,286.292023 149.923904,285.015747 
z"/>
<path fill="#F0F0F0" opacity="1.000000" stroke="none" 
	d="
M239.998627,480.604980 
	C237.294220,484.379547 235.438141,488.410736 231.294327,490.639709 
	C228.822891,491.969116 230.781906,495.830719 228.024963,497.731812 
	C225.904678,494.986145 227.081146,490.839874 223.562592,488.248779 
	C223.024521,487.173370 222.932434,486.399780 223.191452,485.211060 
	C223.292023,484.823853 223.641586,484.907440 223.815826,484.951416 
	C224.865707,483.862488 224.528427,482.628235 224.023087,481.235352 
	C223.755859,481.068451 223.524933,481.266113 223.376740,481.232361 
	C223.157303,480.680511 223.180527,480.166656 223.500061,479.325287 
	C229.759933,478.742584 232.585312,474.445190 235.061707,469.805389 
	C236.436874,467.228821 237.028519,464.226776 239.627014,462.067383 
	C240.589447,462.694153 240.481262,463.529999 240.212479,464.702209 
	C239.990784,465.476410 239.993851,465.901581 240.000946,466.645569 
	C238.891434,470.055298 239.724976,473.240570 239.776428,476.703186 
	C240.002304,478.088898 240.000229,479.148254 239.998627,480.604980 
z"/>
<path fill="#E5DA4D" opacity="1.000000" stroke="none" 
	d="
M148.232773,368.330078 
	C148.623062,373.172821 150.377197,378.205505 146.925842,382.965790 
	C144.993103,382.407837 143.192795,381.892914 141.750504,380.872131 
	C139.834656,379.516205 136.565628,379.073853 136.678116,376.045563 
	C136.801437,372.725555 140.055756,371.909851 142.447693,370.627838 
	C144.175781,369.701599 146.081360,369.106537 148.232773,368.330078 
z"/>
<path fill="#E8D946" opacity="1.000000" stroke="none" 
	d="
M148.266037,345.743774 
	C149.320862,349.366669 148.840790,352.752869 148.685303,356.572632 
	C147.745911,361.002716 145.555359,361.601074 142.252182,359.624573 
	C141.007050,358.879517 139.631577,358.360748 138.122711,357.296631 
	C137.804520,357.082001 137.367477,357.005127 137.184952,356.878967 
	C133.338501,352.967651 133.329102,351.884338 137.535553,349.262939 
	C140.710663,347.284271 143.971298,345.281036 148.266037,345.743774 
z"/>
<path fill="#E5DA4D" opacity="1.000000" stroke="none" 
	d="
M126.654755,424.458923 
	C122.261696,422.434479 118.433739,419.418213 115.537140,415.040955 
	C117.938675,413.840118 120.407158,412.897308 122.847321,411.886169 
	C124.449066,411.222473 125.997963,410.756073 127.427567,412.196106 
	C128.752548,413.530792 128.733215,415.107025 128.314316,416.812378 
	C127.724548,419.213257 127.238197,421.639526 126.654755,424.458923 
z"/>
<path fill="#E5DA4D" opacity="1.000000" stroke="none" 
	d="
M111.978531,407.054016 
	C109.405510,403.474030 108.920380,399.415161 108.998367,394.850983 
	C113.012978,393.680603 116.089928,396.045044 119.292740,397.596863 
	C121.692276,398.759491 121.213310,400.861969 119.465515,402.485291 
	C117.389435,404.413422 115.029846,405.956970 111.978531,407.054016 
z"/>
<path fill="#4EA787" opacity="1.000000" stroke="none" 
	d="
M223.694763,487.897217 
	C229.292389,489.375275 227.923248,493.441528 227.699951,497.464203 
	C227.228760,498.371887 226.769455,498.854828 226.168152,499.546753 
	C225.148010,500.922028 223.903915,500.939972 222.253723,500.757568 
	C221.157761,500.747223 220.430450,500.819763 219.354126,501.004578 
	C216.205978,501.233337 213.406860,501.349854 210.292084,501.287872 
	C209.798615,500.920441 209.620804,500.731506 209.731689,500.281586 
	C210.020370,500.020569 210.000000,500.000000 210.009750,500.010498 
	C216.673141,498.365417 219.666306,492.716400 223.694763,487.897217 
z"/>
<path fill="#E5DA4D" opacity="1.000000" stroke="none" 
	d="
M109.370766,386.563477 
	C108.883530,382.735138 108.834808,378.935974 109.965828,374.897156 
	C112.684647,375.377319 116.515060,374.328278 117.292084,377.701019 
	C117.983055,380.700256 114.672882,382.333008 112.850212,384.341034 
	C112.002190,385.275330 110.756027,385.848236 109.370766,386.563477 
z"/>
<path fill="#D9D9D9" opacity="1.000000" stroke="none" 
	d="
M199.853806,209.000092 
	C208.512207,209.488251 216.755768,208.252167 225.035645,208.872101 
	C227.180801,209.032700 229.886826,210.292618 231.837357,207.584091 
	C232.497726,206.667114 233.955017,207.770569 234.232910,208.507019 
	C234.808441,210.032303 233.365845,209.960999 232.459488,209.962662 
	C221.297424,209.983002 210.135284,209.963821 198.973190,209.947784 
	C198.821030,209.947571 198.572479,209.897217 198.531601,209.801086 
	C198.030411,208.622375 199.163040,209.297638 199.853806,209.000092 
z"/>
<path fill="#E5DA4D" opacity="1.000000" stroke="none" 
	d="
M148.663483,345.708344 
	C144.614624,346.074799 141.430603,348.100739 138.113434,349.890472 
	C135.014755,351.562317 134.754578,353.541443 136.952667,356.432373 
	C132.128754,354.209259 131.878647,352.124725 136.161148,349.168518 
	C139.720734,346.711395 143.745819,345.301666 148.233459,344.172791 
	C148.643936,344.572906 148.707947,344.988922 148.663483,345.708344 
z"/>
<path fill="#E5DA4D" opacity="1.000000" stroke="none" 
	d="
M137.949036,357.390228 
	C139.528183,356.976593 140.980316,357.819397 142.285919,358.699402 
	C144.859634,360.434113 146.622772,359.838837 148.257294,357.114990 
	C148.637741,358.694305 148.713608,360.371216 148.671906,362.442200 
	C144.578232,362.119598 141.273758,360.035522 137.949036,357.390228 
z"/>
<path fill="#DEDEDE" opacity="1.000000" stroke="none" 
	d="
M204.581085,515.991211 
	C211.694504,515.988708 218.379272,515.994324 225.532745,515.997498 
	C223.330811,518.003052 220.268448,516.851013 217.404404,516.934509 
	C211.006088,517.121094 204.598618,516.992798 198.166565,515.999207 
	C200.161835,515.999207 202.157120,515.999207 204.581085,515.991211 
z"/>
<path fill="#D9D9D9" opacity="1.000000" stroke="none" 
	d="
M319.858276,26.998167 
	C314.285156,26.997885 309.188538,26.997885 304.091919,26.997885 
	C304.093781,26.749529 304.095642,26.501173 304.097504,26.252817 
	C311.632050,26.252817 319.166595,26.252817 326.701141,26.252817 
	C326.713684,26.501362 326.726227,26.749905 326.738800,26.998449 
	C324.604095,26.998449 322.469421,26.998449 319.858276,26.998167 
z"/>
<path fill="#4EA787" opacity="1.000000" stroke="none" 
	d="
M222.552185,468.730957 
	C219.657578,467.925110 222.982635,463.138000 218.315247,462.705322 
	C218.906189,461.365601 219.292206,459.539215 221.506348,459.108490 
	C222.101273,462.150482 222.387436,465.232269 222.552185,468.730957 
z"/>
<path fill="#D9D9D9" opacity="1.000000" stroke="none" 
	d="
M346.989563,305.619568 
	C346.837891,307.342194 347.386719,308.708344 346.255035,310.290558 
	C346.255035,302.685364 346.255035,295.471527 346.255035,288.257690 
	C346.500031,288.249817 346.744995,288.241974 346.989990,288.234131 
	C346.989990,293.881256 346.989990,299.528412 346.989563,305.619568 
z"/>
<path fill="#D9D9D9" opacity="1.000000" stroke="none" 
	d="
M487.002258,146.861038 
	C487.067596,146.149307 487.111664,145.825211 487.200989,145.514145 
	C487.240540,145.376450 487.371765,145.265060 487.461334,145.141724 
	C488.582397,146.813950 487.924042,148.682312 487.967346,150.447586 
	C488.076416,154.895889 488.003448,159.348648 486.999390,163.808716 
	C486.999390,158.290466 486.999390,152.772232 487.002258,146.861038 
z"/>
<path fill="#D9D9D9" opacity="1.000000" stroke="none" 
	d="
M64.709404,403.300110 
	C64.994705,409.231140 64.994705,415.465332 64.994705,421.699493 
	C64.804504,421.700653 64.614304,421.701813 64.424103,421.702972 
	C64.424103,415.669739 64.424103,409.636536 64.709404,403.300110 
z"/>
<path fill="#F3F3F3" opacity="1.000000" stroke="none" 
	d="
M473.299957,197.847443 
	C472.646942,193.974442 474.864899,191.840958 479.312225,189.824158 
	C477.274811,193.339569 475.866486,195.809967 473.299957,197.847443 
z"/>
<path fill="#D9D9D9" opacity="1.000000" stroke="none" 
	d="
M353.402435,226.996826 
	C354.443054,227.041061 355.084564,227.085114 355.726044,227.129166 
	C351.307617,228.078262 345.065063,226.615463 346.961670,235.108292 
	C344.988586,227.426178 345.331482,227.010376 353.402435,226.996826 
z"/>
<path fill="#D9D9D9" opacity="1.000000" stroke="none" 
	d="
M345.002441,273.787109 
	C345.002441,275.697418 345.002441,277.163483 345.002441,278.629517 
	C344.786713,278.632904 344.570984,278.636261 344.355255,278.639618 
	C344.355255,274.136963 344.355255,269.634308 344.355255,265.131653 
	C344.570984,265.124176 344.786713,265.116730 345.002441,265.109283 
	C345.002441,267.853821 345.002441,270.598328 345.002441,273.787109 
z"/>
<path fill="#D9D9D9" opacity="1.000000" stroke="none" 
	d="
M348.014587,239.816589 
	C348.018188,243.684647 348.018188,247.153305 348.018188,250.621979 
	C347.742706,250.631271 347.467255,250.640564 347.191772,250.649857 
	C347.191772,246.592514 347.188843,242.535141 347.205200,238.477875 
	C347.205719,238.349625 347.404572,238.222168 347.510986,238.094330 
	C347.677643,238.535278 347.844299,238.976227 348.014587,239.816589 
z"/>
<path fill="#D9D9D9" opacity="1.000000" stroke="none" 
	d="
M372.532990,225.997192 
	C368.563751,228.184753 363.922211,226.444656 359.354492,225.998642 
	C363.593109,225.998642 367.831726,225.998642 372.532990,225.997192 
z"/>
<path fill="#D9D9D9" opacity="1.000000" stroke="none" 
	d="
M274.002441,414.139465 
	C274.002441,412.243866 274.002441,410.781830 274.002441,409.319824 
	C274.223236,409.317963 274.444061,409.316071 274.664856,409.314209 
	C274.664856,413.171753 274.664856,417.029266 274.664856,420.886780 
	C274.444061,420.890259 274.223236,420.893768 274.002441,420.897247 
	C274.002441,418.789185 274.002441,416.681122 274.002441,414.139465 
z"/>
<path fill="#D9D9D9" opacity="1.000000" stroke="none" 
	d="
M103.870110,353.987122 
	C101.326698,353.988983 99.218712,353.988983 97.110718,353.988983 
	C97.111954,353.744904 97.113182,353.500824 97.114410,353.256744 
	C100.989235,353.256744 104.864052,353.256744 109.115471,353.256744 
	C107.396500,354.530060 105.779221,353.739960 103.870110,353.987122 
z"/>
<path fill="#D9D9D9" opacity="1.000000" stroke="none" 
	d="
M373.001068,226.001831 
	C377.182098,223.758591 381.551636,225.744904 385.830719,226.001587 
	C381.862030,226.001587 377.893311,226.001587 373.460144,225.998657 
	C372.995636,225.995728 373.000000,226.000000 373.001068,226.001831 
z"/>
<path fill="#D9D9D9" opacity="1.000000" stroke="none" 
	d="
M399.936646,224.966751 
	C396.105377,224.995941 392.649353,224.995941 389.193329,224.995941 
	C389.194031,224.688766 389.194702,224.381607 389.195404,224.074432 
	C392.893036,224.074432 396.590698,224.071503 400.288269,224.086258 
	C400.421356,224.086792 400.679749,224.310959 400.665588,224.347168 
	C400.583221,224.557861 400.436737,224.743469 399.936646,224.966751 
z"/>
<path fill="#D9D9D9" opacity="1.000000" stroke="none" 
	d="
M178.999908,115.599991 
	C179.049347,114.559906 179.098282,113.919533 179.147232,113.279167 
	C179.320663,113.282990 179.494110,113.286819 179.667542,113.290649 
	C179.667542,116.804794 179.667542,120.318939 179.667542,123.833084 
	C179.444839,123.837395 179.222122,123.841698 178.999420,123.846008 
	C178.999420,121.230576 178.999420,118.615143 178.999908,115.599991 
z"/>
<path fill="#D9D9D9" opacity="1.000000" stroke="none" 
	d="
M406.711182,229.295776 
	C406.995178,232.902100 406.995178,236.807022 406.995178,240.711960 
	C406.805847,240.713806 406.616547,240.715652 406.427216,240.717514 
	C406.427216,237.009796 406.427216,233.302078 406.711182,229.295776 
z"/>
<path fill="#D9D9D9" opacity="1.000000" stroke="none" 
	d="
M162.406937,525.256104 
	C165.677826,525.068115 168.652405,525.068115 171.626984,525.068115 
	C168.460388,525.756592 165.301926,526.552307 162.406937,525.256104 
z"/>
<path fill="#D9D9D9" opacity="1.000000" stroke="none" 
	d="
M120.251007,504.595520 
	C120.062050,501.250092 120.062050,498.200806 120.062050,495.151520 
	C121.003830,498.407379 121.494713,501.649628 120.251007,504.595520 
z"/>
<path fill="#DEDEDE" opacity="1.000000" stroke="none" 
	d="
M249.340454,442.958984 
	C249.481628,439.918701 251.653915,439.403137 254.723389,439.142273 
	C253.154343,441.233093 251.437500,442.098328 249.340454,442.958984 
z"/>
<path fill="#D9D9D9" opacity="1.000000" stroke="none" 
	d="
M407.002930,229.002930 
	C406.961884,226.681305 407.347626,224.129166 403.989868,223.516830 
	C408.874023,222.627151 408.185028,225.563416 407.271729,228.730209 
	C406.995178,228.997177 407.000061,229.000137 407.002930,229.002930 
z"/>
<path fill="#D9D9D9" opacity="1.000000" stroke="none" 
	d="
M295.464691,27.998573 
	C294.461517,27.946167 293.839600,27.893476 291.873322,27.726891 
	C295.741119,26.652031 298.286682,27.040876 301.481934,27.136940 
	C299.272156,28.502481 297.503296,27.766285 295.464691,27.998573 
z"/>
<path fill="#DEDEDE" opacity="1.000000" stroke="none" 
	d="
M244.263763,498.719482 
	C243.985794,495.972565 243.992233,492.939606 243.995804,489.452271 
	C245.823517,492.046204 245.042358,495.248260 244.263763,498.719482 
z"/>
<path fill="#D9D9D9" opacity="1.000000" stroke="none" 
	d="
M240.001587,476.571899 
	C238.182388,473.966217 238.958694,470.748718 239.723312,467.256531 
	C240.002914,470.014404 240.000854,473.064362 240.001587,476.571899 
z"/>
<path fill="#DEDEDE" opacity="1.000000" stroke="none" 
	d="
M420.276733,270.274963 
	C423.027008,269.989960 426.061676,269.991272 429.551178,269.985107 
	C426.961426,271.850372 423.750275,271.028290 420.276733,270.274963 
z"/>
<path fill="#D9D9D9" opacity="1.000000" stroke="none" 
	d="
M157.012878,525.950562 
	C154.813461,525.795593 152.878098,526.478821 150.184631,525.086792 
	C153.156494,525.086792 155.214081,525.082214 157.271515,525.097351 
	C157.404510,525.098328 157.659561,525.284668 157.647858,525.327393 
	C157.591110,525.534973 157.462692,525.722839 157.012878,525.950562 
z"/>
<path fill="#22986D" opacity="1.000000" stroke="none" 
	d="
M209.604980,500.005005 
	C210.012451,500.201996 210.004547,500.383453 209.986542,500.837158 
	C207.884033,502.074493 205.800018,501.832184 203.364883,500.966858 
	C204.889297,499.303711 207.125687,500.253357 209.604980,500.005005 
z"/>
<path fill="#D9D9D9" opacity="1.000000" stroke="none" 
	d="
M119.037811,306.924591 
	C121.128944,308.211609 119.616600,310.136658 119.896950,312.656677 
	C118.551697,310.468292 119.184853,308.817963 119.037811,306.924591 
z"/>
<path fill="#D9D9D9" opacity="1.000000" stroke="none" 
	d="
M285.601990,28.996464 
	C285.092590,28.975046 284.904541,29.005037 284.775665,28.931433 
	C284.551483,28.803417 284.363861,28.611444 284.160889,28.446285 
	C286.013275,27.561514 287.891602,28.082474 289.818268,28.796989 
	C288.528839,28.865072 287.239380,28.933155 285.601990,28.996464 
z"/>
<path fill="#DEDEDE" opacity="1.000000" stroke="none" 
	d="
M80.964233,459.673767 
	C79.096367,459.807251 77.989708,458.960785 78.181702,456.780609 
	C80.033974,456.897888 80.511925,458.091461 80.964233,459.673767 
z"/>
<path fill="#D9D9D9" opacity="1.000000" stroke="none" 
	d="
M169.837128,212.001221 
	C168.705734,211.965515 167.916718,211.928955 166.513580,211.863937 
	C168.717911,210.445877 170.344971,211.243912 171.993225,211.711487 
	C171.388657,211.807770 170.784073,211.904053 169.837128,212.001221 
z"/>
<path fill="#D9D9D9" opacity="1.000000" stroke="none" 
	d="
M268.411133,392.003479 
	C269.809998,390.189240 271.888489,391.368866 273.855927,391.273956 
	C272.278168,392.471466 270.506104,391.798309 268.411133,392.003479 
z"/>
<path fill="#D9D9D9" opacity="1.000000" stroke="none" 
	d="
M65.003227,403.003174 
	C65.006264,401.061493 65.006264,399.116760 65.006264,397.172028 
	C66.278122,398.914612 66.140450,400.686676 65.267151,402.737000 
	C64.994705,402.996948 65.000191,403.000092 65.003227,403.003174 
z"/>
<path fill="#D9D9D9" opacity="1.000000" stroke="none" 
	d="
M486.002686,169.170715 
	C486.096313,168.223770 486.188751,167.616455 486.386627,166.316483 
	C487.212372,168.657669 487.154327,170.258087 486.109894,171.859573 
	C486.073761,171.076508 486.037659,170.293442 486.002686,169.170715 
z"/>
<path fill="#D9D9D9" opacity="1.000000" stroke="none" 
	d="
M180.007446,128.516876 
	C180.032074,128.020493 179.998886,127.822456 180.080490,127.702568 
	C180.214966,127.505028 180.423676,127.358025 180.601089,127.189713 
	C181.298935,128.750916 181.100571,130.312653 180.675888,131.996887 
	C179.520950,131.042297 180.204269,129.858002 180.007446,128.516876 
z"/>
<path fill="#4EA787" opacity="1.000000" stroke="none" 
	d="
M223.593933,478.822998 
	C223.622070,479.489624 223.542023,479.985748 223.345276,480.840240 
	C222.128906,480.435486 221.956909,479.481079 222.851562,478.168396 
	C223.296692,478.149048 223.437973,478.370972 223.593933,478.822998 
z"/>
<path fill="#DEDEDE" opacity="1.000000" stroke="none" 
	d="
M245.634521,448.919250 
	C245.967209,449.988037 245.763977,450.732086 244.970932,451.166138 
	C244.809219,451.254639 244.261108,451.044678 244.231049,450.901154 
	C244.011993,449.855133 244.259705,449.006256 245.634521,448.919250 
z"/>
<path fill="#DEDEDE" opacity="1.000000" stroke="none" 
	d="
M411.852539,47.713745 
	C410.774963,47.924206 409.408936,48.216072 408.684021,46.685989 
	C410.079895,45.412868 410.864288,46.549511 411.852539,47.713745 
z"/>
<path fill="#D9D9D9" opacity="1.000000" stroke="none" 
	d="
M122.009346,263.624023 
	C122.042694,262.558319 122.084160,261.810333 122.160072,260.441010 
	C123.275612,262.294434 123.183212,263.560028 122.618820,264.844025 
	C122.608292,264.867950 122.353668,264.845825 122.329178,264.792145 
	C122.204231,264.518280 122.117538,264.226929 122.009346,263.624023 
z"/>
<path fill="#D9D9D9" opacity="1.000000" stroke="none" 
	d="
M486.012451,139.394485 
	C487.665588,139.808578 487.005676,140.876465 486.179382,142.730545 
	C486.091431,141.203552 486.048401,140.456680 486.012451,139.394485 
z"/>
<path fill="#D9D9D9" opacity="1.000000" stroke="none" 
	d="
M280.786743,29.336391 
	C279.659973,30.265444 278.336487,30.194040 276.906342,29.541359 
	C278.126373,28.633192 279.374664,29.070972 280.786743,29.336391 
z"/>
<path fill="#D9D9D9" opacity="1.000000" stroke="none" 
	d="
M115.572723,485.447021 
	C116.147255,485.890167 116.584938,486.317383 116.018730,486.678955 
	C115.434601,487.052032 114.734787,486.892517 114.503067,486.169708 
	C114.323006,485.608002 114.774849,485.346588 115.572723,485.447021 
z"/>
<path fill="#D9D9D9" opacity="1.000000" stroke="none" 
	d="
M268.003052,392.003082 
	C267.887634,392.836884 267.760437,393.745636 266.642578,393.611694 
	C266.299866,393.570648 266.023376,392.976898 265.716583,392.636261 
	C266.269135,392.421570 266.821716,392.206879 267.684021,391.992859 
	C267.993713,391.993530 268.000000,392.000000 268.003052,392.003082 
z"/>
<path fill="#D9D9D9" opacity="1.000000" stroke="none" 
	d="
M278.792114,390.984436 
	C278.044678,390.889801 277.590393,390.787170 277.136108,390.684540 
	C277.885345,389.570221 278.865906,389.983490 279.820404,390.293610 
	C279.886871,390.315216 279.944702,390.593262 279.929962,390.600739 
	C279.655365,390.739685 279.369110,390.855682 278.792114,390.984436 
z"/>
<path fill="#D9D9D9" opacity="1.000000" stroke="none" 
	d="
M175.172272,212.279999 
	C176.289780,212.100235 177.269516,211.648376 178.066467,212.593781 
	C176.971619,213.114868 175.945175,213.319977 175.172272,212.279999 
z"/>
<path fill="#D9D9D9" opacity="1.000000" stroke="none" 
	d="
M116.719475,293.177368 
	C116.901131,294.300781 117.351585,295.284851 116.405655,296.086731 
	C115.883743,294.986908 115.671341,293.954834 116.719475,293.177368 
z"/>
<path fill="#D9D9D9" opacity="1.000000" stroke="none" 
	d="
M405.023407,246.223572 
	C405.204407,245.515030 405.260071,244.341385 405.845947,245.612259 
	C406.116119,246.198288 406.561493,247.358047 405.336487,247.852722 
	C405.229889,247.406036 405.123291,246.959351 405.023407,246.223572 
z"/>
<path fill="#D9D9D9" opacity="1.000000" stroke="none" 
	d="
M125.259109,276.774841 
	C125.061592,275.677673 125.123184,274.355316 125.209686,272.498199 
	C126.329041,274.220093 126.052544,275.383942 125.259109,276.774841 
z"/>
<path fill="#D9D9D9" opacity="1.000000" stroke="none" 
	d="
M273.920898,30.708599 
	C273.154022,30.793266 272.576813,30.707413 271.999634,30.621561 
	C272.018188,30.510746 272.001923,30.328562 272.060547,30.299957 
	C272.788635,29.944775 273.504517,29.802631 273.920898,30.708599 
z"/>
<path fill="#D9D9D9" opacity="1.000000" stroke="none" 
	d="
M116.709167,353.075897 
	C116.794258,353.859467 116.706223,354.449341 116.618195,355.039215 
	C116.505089,355.020874 116.318497,355.037933 116.290024,354.978821 
	C115.931328,354.234039 115.792915,353.502441 116.709167,353.075897 
z"/>
<path fill="#D9D9D9" opacity="1.000000" stroke="none" 
	d="
M240.224762,464.862610 
	C239.987900,464.288574 239.988052,463.525879 239.979630,462.382782 
	C242.198318,462.513794 240.614502,463.725311 240.224762,464.862610 
z"/>
<path fill="#D9D9D9" opacity="1.000000" stroke="none" 
	d="
M120.348724,338.050323 
	C121.139069,338.553223 121.125198,339.826935 120.647308,339.850189 
	C119.573502,339.902466 120.177361,338.836945 120.348724,338.050323 
z"/>
<path fill="#DEDEDE" opacity="1.000000" stroke="none" 
	d="
M193.954742,517.349243 
	C193.453583,518.149109 192.184921,518.142029 192.157089,517.652466 
	C192.095413,516.567993 193.167252,517.172913 193.954742,517.349243 
z"/>
<path fill="#D9D9D9" opacity="1.000000" stroke="none" 
	d="
M268.274719,31.126852 
	C268.735443,31.224037 268.976929,31.361847 269.218414,31.499653 
	C268.977142,31.636925 268.729462,31.895626 268.496094,31.883289 
	C268.137665,31.864340 267.468903,31.848093 268.274719,31.126852 
z"/>
<path fill="#D9D9D9" opacity="1.000000" stroke="none" 
	d="
M113.055588,354.684265 
	C112.527794,354.714355 112.153397,354.589935 111.779007,354.465515 
	C111.881195,354.362213 112.006859,354.155853 112.081612,354.172882 
	C112.464607,354.260193 112.834496,354.405029 113.055588,354.684265 
z"/>
<path fill="#D9D9D9" opacity="1.000000" stroke="none" 
	d="
M119.127838,343.723816 
	C119.224831,343.265411 119.362785,343.025330 119.500748,342.785278 
	C119.637840,343.025269 119.895622,343.271240 119.884155,343.503906 
	C119.866272,343.866669 119.852364,344.537994 119.127838,343.723816 
z"/>
<path fill="#D9D9D9" opacity="1.000000" stroke="none" 
	d="
M119.868774,491.291046 
	C119.772591,491.748230 119.635269,491.987762 119.497948,492.227325 
	C119.361076,491.987915 119.104599,491.743225 119.114883,491.510315 
	C119.131012,491.145020 119.156265,490.497162 119.868774,491.291046 
z"/>
<path fill="#D9D9D9" opacity="1.000000" stroke="none" 
	d="
M67.367714,387.929443 
	C67.632782,388.191589 67.740463,388.578461 67.793541,388.972687 
	C67.802605,389.040039 67.578316,389.138794 67.461838,389.223053 
	C67.371857,388.834259 67.281876,388.445435 67.367714,387.929443 
z"/>
<path fill="#D9D9D9" opacity="1.000000" stroke="none" 
	d="
M66.364914,392.912964 
	C66.632141,393.175964 66.741386,393.565460 66.795807,393.962463 
	C66.805084,394.030121 66.579575,394.129944 66.462524,394.214905 
	C66.371162,393.823914 66.279808,393.432953 66.364914,392.912964 
z"/>
<path fill="#D9D9D9" opacity="1.000000" stroke="none" 
	d="
M117.870667,299.696350 
	C117.181526,300.512177 117.148720,299.850250 117.121399,299.500946 
	C117.103455,299.271484 117.354004,299.021057 117.484314,298.779999 
	C117.625015,299.013489 117.765724,299.247009 117.870667,299.696350 
z"/>
<path fill="#D9D9D9" opacity="1.000000" stroke="none" 
	d="
M142.949097,523.313110 
	C143.479126,523.282959 143.855347,523.408020 144.231567,523.533142 
	C144.128738,523.636658 144.002411,523.843567 143.927063,523.826416 
	C143.542557,523.738892 143.171234,523.593506 142.949097,523.313110 
z"/>
<path fill="#D9D9D9" opacity="1.000000" stroke="none" 
	d="
M146.942322,524.315430 
	C147.473160,524.285583 147.849335,524.409790 148.225525,524.534058 
	C148.122467,524.637085 147.996155,524.843018 147.920258,524.825928 
	C147.535538,524.738953 147.163910,524.594055 146.942322,524.315430 
z"/>
<path fill="#DEDEDE" opacity="1.000000" stroke="none" 
	d="
M417.200867,269.237579 
	C417.856384,269.145233 418.718842,269.318237 419.797638,269.745972 
	C419.145264,269.834778 418.276550,269.668854 417.200867,269.237579 
z"/>
<path fill="#DEDEDE" opacity="1.000000" stroke="none" 
	d="
M81.002533,459.998230 
	C81.325569,460.464050 81.645920,460.931671 81.978981,461.705139 
	C81.673775,461.540253 81.355858,461.069519 81.016083,460.302429 
	C80.994217,460.006104 80.999855,460.000000 81.002533,459.998230 
z"/>
<path fill="#D9D9D9" opacity="1.000000" stroke="none" 
	d="
M124.800056,277.122437 
	C124.881889,277.422333 124.763779,277.844666 124.645660,278.266998 
	C123.947701,277.956726 124.336197,277.598022 124.800056,277.122437 
z"/>
<path fill="#D9D9D9" opacity="1.000000" stroke="none" 
	d="
M301.738831,383.599304 
	C301.860168,383.447815 302.068146,383.426697 302.276154,383.405579 
	C302.125916,383.513580 301.975677,383.621613 301.738831,383.599304 
z"/>
<path fill="#D9D9D9" opacity="1.000000" stroke="none" 
	d="
M123.593590,258.259399 
	C123.443214,258.138123 123.422775,257.929535 123.402344,257.720978 
	C123.509407,257.871338 123.616470,258.021729 123.593590,258.259399 
z"/>
<path fill="#D9D9D9" opacity="1.000000" stroke="none" 
	d="
M241.009583,40.737621 
	C240.906219,40.580700 240.957413,40.422787 241.008575,40.264877 
	C241.060425,40.422127 241.112274,40.579376 241.009583,40.737621 
z"/>
<path fill="#DEDEDE" opacity="1.000000" stroke="none" 
	d="
M247.237518,445.827545 
	C247.160324,445.436737 247.335373,444.884888 247.760391,444.170349 
	C247.836838,444.560577 247.663300,445.113556 247.237518,445.827545 
z"/>
<path fill="#DEDEDE" opacity="1.000000" stroke="none" 
	d="
M412.003723,47.996414 
	C412.560059,48.165848 413.112823,48.338650 413.828979,48.760658 
	C413.440125,48.836658 412.887878,48.663445 412.165588,48.248421 
	C411.995544,48.006607 412.000153,47.999783 412.003723,47.996414 
z"/>
<path fill="#DEDEDE" opacity="1.000000" stroke="none" 
	d="
M191.979218,165.703796 
	C191.675339,165.538071 191.356567,165.068588 191.024200,164.294159 
	C191.328522,164.459503 191.646423,164.929764 191.979218,165.703796 
z"/>
<path fill="#D9D9D9" opacity="1.000000" stroke="none" 
	d="
M273.638275,423.763733 
	C273.623322,424.000458 273.496918,424.128876 273.370514,424.257294 
	C273.422638,424.056671 273.474731,423.856079 273.638275,423.763733 
z"/>
<path fill="#DEDEDE" opacity="1.000000" stroke="none" 
	d="
M212.704346,58.020363 
	C212.539673,58.326862 212.070404,58.647018 211.295990,58.980103 
	C211.460464,58.673363 211.930099,58.353691 212.704346,58.020363 
z"/>
<path fill="#D9D9D9" opacity="1.000000" stroke="none" 
	d="
M109.020790,483.745544 
	C108.915245,483.586304 108.967056,483.425690 109.018867,483.265045 
	C109.071960,483.424744 109.125046,483.584412 109.020790,483.745544 
z"/>
<path fill="#D9D9D9" opacity="1.000000" stroke="none" 
	d="
M111.989578,484.261200 
	C112.093216,484.418060 112.042000,484.575958 111.990799,484.733856 
	C111.938766,484.576660 111.886742,484.419434 111.989578,484.261200 
z"/>
<path fill="#D9D9D9" opacity="1.000000" stroke="none" 
	d="
M184.363037,94.239723 
	C184.377823,94.004532 184.503693,93.876862 184.629562,93.749191 
	C184.577744,93.948540 184.525925,94.147888 184.363037,94.239723 
z"/>
<path fill="#D9D9D9" opacity="1.000000" stroke="none" 
	d="
M120.241791,285.829254 
	C120.171272,285.446503 120.342545,284.892975 120.757820,284.170349 
	C120.829071,284.553650 120.656326,285.106079 120.241791,285.829254 
z"/>
<path fill="#D9D9D9" opacity="1.000000" stroke="none" 
	d="
M186.006958,88.008278 
	C186.013931,88.016556 186.506805,88.010269 186.753708,88.005287 
	C186.840012,88.426010 186.679413,88.851715 186.518829,89.277420 
	C186.362183,89.019783 186.205551,88.762138 186.032959,88.259232 
	C186.016998,88.013954 186.000000,88.000000 186.006958,88.008278 
z"/>
<path fill="#D9D9D9" opacity="1.000000" stroke="none" 
	d="
M117.798538,289.118591 
	C117.878036,289.417084 117.759071,289.836639 117.640106,290.256165 
	C116.952698,289.943878 117.329872,289.589661 117.798538,289.118591 
z"/>
<path fill="#D9D9D9" opacity="1.000000" stroke="none" 
	d="
M118.597282,303.272217 
	C118.440056,303.146698 118.417763,302.929779 118.395462,302.712860 
	C118.507706,302.868835 118.619957,303.024811 118.597282,303.272217 
z"/>
<path fill="#DEDEDE" opacity="1.000000" stroke="none" 
	d="
M190.995514,164.003052 
	C190.750214,163.664780 190.508072,163.324112 190.285202,162.971268 
	C190.281235,162.965012 190.508789,162.812485 190.628296,162.728180 
	C190.746338,162.993317 190.864365,163.258453 190.996521,163.756409 
	C191.010620,163.989227 191.000580,163.999451 190.995514,164.003052 
z"/>
<path fill="#DEDEDE" opacity="1.000000" stroke="none" 
	d="
M188.359299,158.247116 
	C188.373718,158.008484 188.502090,157.878616 188.630447,157.748734 
	C188.578049,157.951111 188.525650,158.153503 188.359299,158.247116 
z"/>
<path fill="#DEDEDE" opacity="1.000000" stroke="none" 
	d="
M193.531921,168.550781 
	C193.475937,168.585159 193.587921,168.516418 193.531921,168.550781 
z"/>
<path fill="#D9D9D9" opacity="1.000000" stroke="none" 
	d="
M159.526382,215.548843 
	C159.470474,215.581238 159.582291,215.516449 159.526382,215.548843 
z"/>
<path fill="#D9D9D9" opacity="1.000000" stroke="none" 
	d="
M220.460815,201.522369 
	C220.431763,201.471252 220.489883,201.573486 220.460815,201.522369 
z"/>
<path fill="#D9D9D9" opacity="1.000000" stroke="none" 
	d="
M120.999344,283.999390 
	C121.088760,283.965454 121.178818,283.932159 121.135361,283.950012 
	C121.001831,284.001221 121.000000,284.000000 120.999344,283.999390 
z"/>
<path fill="#DEDEDE" opacity="1.000000" stroke="none" 
	d="
M202.008087,181.993759 
	C202.130539,182.130600 202.245285,182.273605 202.360046,182.416611 
	C202.273911,182.371277 202.187790,182.325943 202.044983,182.147919 
	C201.988327,182.015213 202.000366,181.999924 202.008087,181.993759 
z"/>
<path fill="#DEDEDE" opacity="1.000000" stroke="none" 
	d="
M247.996155,443.995117 
	C248.100311,443.673401 248.288040,443.414276 248.771118,443.101471 
	C248.986877,442.990143 248.999634,442.999939 249.004700,443.006073 
	C248.899933,443.328278 248.710526,443.585846 248.225983,443.896301 
	C248.010376,444.007629 248.000107,444.000000 247.996155,443.995117 
z"/>
<path fill="#DEDEDE" opacity="1.000000" stroke="none" 
	d="
M247.005432,446.007294 
	C246.913559,446.042877 246.816116,446.071167 246.851959,446.044006 
	C246.985260,445.988586 246.999847,446.000000 247.005432,446.007294 
z"/>
<path fill="#D9D9D9" opacity="1.000000" stroke="none" 
	d="
M154.531921,220.544281 
	C154.475998,220.578156 154.587830,220.510422 154.531921,220.544281 
z"/>
<path fill="#4EA787" opacity="1.000000" stroke="none" 
	d="
M223.104935,475.728119 
	C222.907669,475.718231 222.776962,475.449615 222.794678,475.083740 
	C223.019226,475.147491 223.095367,475.308472 223.104935,475.728119 
z"/>
<path fill="#DEDEDE" opacity="1.000000" stroke="none" 
	d="
M82.005821,461.995514 
	C82.126450,462.130157 82.241447,462.269287 82.356430,462.408447 
	C82.272217,462.363281 82.188019,462.318115 82.047760,462.141968 
	C81.991699,462.010986 82.000191,462.000000 82.005821,461.995514 
z"/>
<path fill="#D9D9D9" opacity="1.000000" stroke="none" 
	d="
M236.534943,42.549458 
	C236.478119,42.582199 236.591782,42.516716 236.534943,42.549458 
z"/>
<path fill="#D9D9D9" opacity="1.000000" stroke="none" 
	d="
M224.529175,203.553680 
	C224.470963,203.588226 224.587372,203.519150 224.529175,203.553680 
z"/>
<path fill="#D9D9D9" opacity="1.000000" stroke="none" 
	d="
M222.469208,202.451202 
	C222.524811,202.419235 222.413589,202.483185 222.469208,202.451202 
z"/>
<path fill="#DEDEDE" opacity="1.000000" stroke="none" 
	d="
M189.469894,160.451233 
	C189.522736,160.419449 189.417053,160.483017 189.469894,160.451233 
z"/>
<path fill="#DEDEDE" opacity="1.000000" stroke="none" 
	d="
M194.470139,170.447083 
	C194.523148,170.415161 194.417130,170.479019 194.470139,170.447083 
z"/>
<path fill="#73C69E" opacity="1.000000" stroke="none" 
	d="
M175.919891,493.770813 
	C175.722763,493.754486 175.596848,493.448914 175.630310,493.032166 
	C175.856842,493.107819 175.923981,493.294708 175.919891,493.770813 
z"/>
<path fill="#D9D9D9" opacity="1.000000" stroke="none" 
	d="
M238.550613,41.468506 
	C238.584686,41.523602 238.516541,41.413406 238.550613,41.468506 
z"/>
<path fill="#DEDEDE" opacity="1.000000" stroke="none" 
	d="
M452.111084,77.214737 
	C452.333496,77.089127 452.595032,77.277405 452.892700,77.781830 
	C452.671234,77.904175 452.411713,77.714386 452.111084,77.214737 
z"/>
<path fill="#DEDEDE" opacity="1.000000" stroke="none" 
	d="
M326.134399,364.948425 
	C326.086334,364.963135 326.182434,364.933685 326.134399,364.948425 
z"/>
<path fill="#DEDEDE" opacity="1.000000" stroke="none" 
	d="
M211.003815,59.004868 
	C210.914856,59.041363 210.822098,59.073124 210.860107,59.048958 
	C210.990845,58.993031 211.000031,59.000134 211.003815,59.004868 
z"/>
<path fill="#DEDEDE" opacity="1.000000" stroke="none" 
	d="
M192.003967,165.996933 
	C192.122955,166.133392 192.237961,166.272934 192.352982,166.412460 
	C192.269623,166.365738 192.186279,166.319031 192.048523,166.139938 
	C191.994110,166.007553 192.000015,166.000000 192.003967,165.996933 
z"/>
<path fill="#DEDEDE" opacity="1.000000" stroke="none" 
	d="
M208.468964,61.448917 
	C208.526245,61.414783 208.411667,61.483051 208.468964,61.448917 
z"/>
<path fill="#DEDEDE" opacity="1.000000" stroke="none" 
	d="
M448.946472,73.867157 
	C448.872253,73.871994 448.757904,73.726349 448.643555,73.580711 
	C448.731140,73.626038 448.818756,73.671356 448.946472,73.867157 
z"/>
<path fill="#DEDEDE" opacity="1.000000" stroke="none" 
	d="
M449.891876,74.784454 
	C449.670197,74.907463 449.411774,74.717995 449.099396,74.232964 
	C448.986572,74.017654 449.000305,74.000114 449.009277,73.992989 
	C449.336273,74.094063 449.595642,74.282852 449.891876,74.784454 
z"/>
<path fill="#DEDEDE" opacity="1.000000" stroke="none" 
	d="
M450.008789,74.993256 
	C450.335846,75.094429 450.594849,75.283798 450.892975,75.782852 
	C450.674622,75.902489 450.415405,75.714325 450.100708,75.231583 
	C449.987427,75.016678 450.000427,74.999901 450.008789,74.993256 
z"/>
<path fill="#DEDEDE" opacity="1.000000" stroke="none" 
	d="
M451.993286,77.004929 
	C451.671661,76.898888 451.414673,76.709137 451.103668,76.225967 
	C450.991699,76.010994 451.000122,75.999939 451.005920,75.995491 
	C451.331177,76.095207 451.590820,76.282326 451.900696,76.769096 
	C452.010773,76.985802 452.000000,76.999672 451.993286,77.004929 
z"/>
<path fill="#DEDEDE" opacity="1.000000" stroke="none" 
	d="
M326.003967,365.005127 
	C325.915100,365.042114 325.822266,365.074036 325.859833,365.049255 
	C325.990234,364.992584 326.000000,365.000061 326.003967,365.005127 
z"/>
<path fill="#DEDEDE" opacity="1.000000" stroke="none" 
	d="
M453.007111,77.994469 
	C453.128784,78.128845 453.243683,78.268562 453.358582,78.408279 
	C453.273926,78.363525 453.189240,78.318771 453.047272,78.143524 
	C452.989990,78.013031 453.000336,77.999817 453.007111,77.994469 
z"/>
<path fill="#DEDEDE" opacity="1.000000" stroke="none" 
	d="
M457.452087,82.527466 
	C457.420685,82.473351 457.483521,82.581573 457.452087,82.527466 
z"/>
<path fill="#D9D9D9" opacity="1.000000" stroke="none" 
	d="
M123.133896,280.948792 
	C123.089706,280.966248 123.178078,280.931305 123.133896,280.948792 
z"/>
<path fill="#D9D9D9" opacity="1.000000" stroke="none" 
	d="
M122.999466,280.999390 
	C122.910820,281.034790 122.822716,281.070801 122.867973,281.054016 
	C123.001335,281.001221 123.000000,281.000000 122.999466,280.999390 
z"/>
<path fill="#D9D9D9" opacity="1.000000" stroke="none" 
	d="
M118.001190,289.001465 
	C118.090202,288.966370 118.178040,288.929749 118.131439,288.945343 
	C117.996994,288.997559 118.000000,289.000000 118.001190,289.001465 
z"/>
<path fill="#D9D9D9" opacity="1.000000" stroke="none" 
	d="
M186.999802,87.999847 
	C187.090652,87.967316 187.181686,87.934929 187.136673,87.951431 
	C187.000610,88.000305 187.000000,88.000000 186.999802,87.999847 
z"/>
<path fill="#D9D9D9" opacity="1.000000" stroke="none" 
	d="
M119.864830,286.050354 
	C119.909882,286.033539 119.819771,286.067108 119.864830,286.050354 
z"/>
<path fill="#D9D9D9" opacity="1.000000" stroke="none" 
	d="
M185.467224,91.446762 
	C185.522858,91.411903 185.411591,91.481621 185.467224,91.446762 
z"/>
<path fill="#D9D9D9" opacity="1.000000" stroke="none" 
	d="
M304.549622,382.468658 
	C304.583405,382.523743 304.515839,382.413574 304.549622,382.468658 
z"/>
<path fill="#D9D9D9" opacity="1.000000" stroke="none" 
	d="
M218.471878,199.449585 
	C218.528381,199.416656 218.415375,199.482513 218.471878,199.449585 
z"/>
<path fill="#DEDEDE" opacity="1.000000" stroke="none" 
	d="
M414.004883,48.996300 
	C414.124115,49.131878 414.238495,49.271194 414.352844,49.410515 
	C414.268951,49.364765 414.185028,49.319012 414.046753,49.141563 
	C413.992371,49.009865 414.000000,49.000042 414.004883,48.996300 
z"/>
<path fill="#DEDEDE" opacity="1.000000" stroke="none" 
	d="
M416.529297,50.547703 
	C416.475006,50.578827 416.583557,50.516579 416.529297,50.547703 
z"/>
<path fill="#D9D9D9" opacity="1.000000" stroke="none" 
	d="
M270.531982,397.545593 
	C270.477966,397.578217 270.586029,397.512939 270.531982,397.545593 
z"/>
<path fill="#DEDEDE" opacity="1.000000" stroke="none" 
	d="
M218.131165,53.944935 
	C218.083282,53.960056 218.179031,53.929817 218.131165,53.944935 
z"/>
<path fill="#DEDEDE" opacity="1.000000" stroke="none" 
	d="
M218.004471,54.005806 
	C217.913681,54.040520 217.818237,54.069305 217.855164,54.044193 
	C217.987534,53.990295 217.999802,53.999882 218.004471,54.005806 
z"/>
<path fill="#DEDEDE" opacity="1.000000" stroke="none" 
	d="
M214.132019,56.945919 
	C214.084427,56.961258 214.179596,56.930584 214.132019,56.945919 
z"/>
<path fill="#F3F3F3" opacity="1.000000" stroke="none" 
	d="
M473.000610,198.000916 
	C472.914703,198.035767 472.828217,198.069702 472.870239,198.051208 
	C472.998779,197.998779 473.000000,198.000000 473.000610,198.000916 
z"/>
<path fill="#D9D9D9" opacity="1.000000" stroke="none" 
	d="
M234.535843,43.546867 
	C234.481964,43.577690 234.589722,43.516045 234.535843,43.546867 
z"/>
<path fill="#D9D9D9" opacity="1.000000" stroke="none" 
	d="
M306.463806,381.454102 
	C306.518280,381.422607 306.409332,381.485626 306.463806,381.454102 
z"/>
<path fill="#DEDEDE" opacity="1.000000" stroke="none" 
	d="
M214.003937,57.005215 
	C213.898529,57.326813 213.709137,57.584381 213.224365,57.894920 
	C213.008957,58.006706 213.000000,57.999958 212.996429,57.995304 
	C213.097946,57.671524 213.285782,57.412392 213.772827,57.102592 
	C213.989273,56.991932 213.999939,56.999992 214.003937,57.005215 
z"/>
<path fill="#DEDEDE" opacity="1.000000" stroke="none" 
	d="
M317.538055,373.552124 
	C317.484222,373.584045 317.591888,373.520203 317.538055,373.552124 
z"/>
<path fill="#DEDEDE" opacity="1.000000" stroke="none" 
	d="
M319.868439,372.051331 
	C319.912720,372.034637 319.824188,372.068024 319.868439,372.051331 
z"/>
<path fill="#DEDEDE" opacity="1.000000" stroke="none" 
	d="
M319.999390,371.999390 
	C320.086609,371.964050 320.174438,371.929291 320.131714,371.947876 
	C320.001221,372.001221 320.000000,372.000000 319.999390,371.999390 
z"/>
<path fill="#DEDEDE" opacity="1.000000" stroke="none" 
	d="
M321.547668,369.475067 
	C321.576599,369.525330 321.518707,369.424805 321.547668,369.475067 
z"/>
<path fill="#DEDEDE" opacity="1.000000" stroke="none" 
	d="
M323.868530,368.051270 
	C323.913574,368.035004 323.823517,368.067505 323.868530,368.051270 
z"/>
<path fill="#DEDEDE" opacity="1.000000" stroke="none" 
	d="
M323.998718,367.998169 
	C324.086517,367.962280 324.175568,367.928192 324.134155,367.948303 
	C324.003662,368.002502 324.000000,368.000000 323.998718,367.998169 
z"/>
<path fill="#0B8F5D" opacity="1.000000" stroke="none" 
	d="
M213.416016,421.734833 
	C212.684525,429.505463 211.157181,431.161499 203.279449,432.661072 
	C200.917816,433.517731 199.260178,432.731445 197.331299,431.461121 
	C193.246170,428.459290 189.489761,425.679810 185.400421,422.772583 
	C182.360168,419.107666 178.935471,416.338867 175.424438,413.666779 
	C171.381409,410.589813 171.053314,408.541168 174.000244,404.544983 
	C182.689865,392.761414 183.888657,392.688873 195.147812,402.618164 
	C198.356613,405.447937 201.824875,407.983551 205.458221,410.785675 
	C207.370819,412.824158 208.999344,414.731018 210.913635,416.809265 
	C212.683701,418.076447 213.970886,419.278442 213.416016,421.734833 
z"/>
<path fill="#E1F8EF" opacity="1.000000" stroke="none" 
	d="
M225.009796,324.403687 
	C228.964645,326.113068 232.910095,328.262177 237.107178,330.667786 
	C234.579514,332.307587 231.736877,333.578613 229.036652,335.102051 
	C225.507477,337.093170 223.934509,336.630829 224.581848,332.196960 
	C224.935165,329.776978 224.874405,327.296539 225.009796,324.403687 
z"/>
<path fill="#E1F8EF" opacity="1.000000" stroke="none" 
	d="
M214.867004,311.468018 
	C217.848068,314.882538 220.680878,318.609314 223.651627,322.624817 
	C220.710342,323.281158 217.632721,323.662842 214.551407,324.012085 
	C211.899811,324.312622 210.850021,323.358429 211.817535,320.631866 
	C212.855576,317.706512 213.757446,314.732819 214.867004,311.468018 
z"/>
<path fill="#E1F8EF" opacity="1.000000" stroke="none" 
	d="
M239.530533,332.351685 
	C243.850342,333.084625 248.241348,334.219543 252.812714,335.678406 
	C250.862503,338.020966 248.663284,339.972961 246.620621,342.076965 
	C244.562729,344.196625 243.403946,343.653076 242.549927,341.068420 
	C241.627548,338.276886 240.589386,335.523651 239.530533,332.351685 
z"/>
<path fill="#143735" opacity="1.000000" stroke="none" 
	d="
M223.510040,268.428833 
	C226.704803,264.508667 229.692139,263.991455 231.690170,266.732819 
	C232.853119,268.328461 233.022186,270.012268 232.015274,271.828857 
	C230.843704,273.942596 228.946793,274.270142 226.914505,273.898132 
	C224.154419,273.392883 223.280212,271.372131 223.510040,268.428833 
z"/>
<path fill="#0E754E" opacity="1.000000" stroke="none" 
	d="
M303.219238,286.737000 
	C303.043518,284.465942 303.670532,282.914490 305.868378,283.373596 
	C307.248505,283.661896 308.050323,285.212189 307.402344,286.493317 
	C306.510132,288.257446 304.931976,288.498260 303.219238,286.737000 
z"/>
<path fill="#0E754E" opacity="1.000000" stroke="none" 
	d="
M319.907837,285.913940 
	C319.544342,288.158478 318.759125,289.453247 316.670288,288.045624 
	C315.733917,287.414612 314.751740,286.336700 315.713501,285.222992 
	C317.072662,283.649078 318.667969,283.305481 319.907837,285.913940 
z"/>
<path fill="#0C0C0C" opacity="1.000000" stroke="none" 
	d="
M349.142029,61.106911 
	C352.336365,60.435207 352.412781,62.616966 352.764526,64.309860 
	C353.948517,70.008301 355.025238,75.728966 356.160614,81.437630 
	C356.468903,82.987762 356.839233,84.525558 357.181122,86.069008 
	C357.681915,86.051620 358.182739,86.034233 358.683533,86.016853 
	C359.506561,79.475708 360.293549,72.929718 361.172241,66.396065 
	C361.477722,64.124512 361.513672,61.692261 365.156769,62.137455 
	C367.954498,62.479347 369.332428,63.058823 368.927765,66.357941 
	C367.146698,80.878593 365.541199,95.421768 364.012604,109.971542 
	C363.717529,112.780197 362.165558,113.166992 359.942200,113.008072 
	C357.387177,112.825447 354.577759,113.539009 353.897125,109.554619 
	C352.412445,100.863495 350.614685,92.225204 348.885864,83.577110 
	C348.621552,82.255074 349.093567,79.990654 346.976105,80.187599 
	C345.159271,80.356583 346.299286,82.352951 346.071075,83.510124 
	C344.622528,90.855019 343.363190,98.239693 341.780609,105.554817 
	C340.764038,110.253677 336.722168,108.012085 333.922546,108.503288 
	C330.994720,109.016983 330.799713,107.048576 330.697113,104.860306 
	C330.190735,94.059471 329.670380,83.258537 329.022064,72.465614 
	C328.848511,69.576210 329.910828,68.731873 332.720093,68.798485 
	C335.250610,68.858490 336.691284,69.093567 336.593201,72.237671 
	C336.470734,76.163902 336.970398,80.109535 337.973145,84.185959 
	C339.022919,79.074768 340.357361,74.001190 341.039307,68.841385 
	C341.671295,64.059967 343.630127,61.197346 349.142029,61.106911 
z"/>
<path fill="#0C0C0C" opacity="1.000000" stroke="none" 
	d="
M325.612549,106.357300 
	C326.051666,109.334648 327.203674,112.100365 322.980560,112.740196 
	C320.380463,113.134125 318.983948,112.805946 318.588623,109.819084 
	C317.914459,104.725830 316.886932,99.678055 315.954315,94.621040 
	C315.647247,92.955872 315.936737,90.447342 313.006195,91.300430 
	C310.531189,92.020905 306.588898,89.785217 306.035492,94.707642 
	C305.554382,98.987457 304.673096,103.222984 304.215088,107.504448 
	C303.916870,110.292297 302.783966,111.349686 299.989044,110.708870 
	C297.629639,110.167900 295.457977,109.905037 296.342712,106.401588 
	C297.314728,102.552399 297.805695,98.580208 298.467255,94.655037 
	C298.677094,93.410103 299.368408,92.117867 298.000244,90.994759 
	C296.455322,89.726555 297.142487,87.892708 297.932617,86.917824 
	C302.324738,81.498909 301.238037,74.702148 302.809540,68.595886 
	C303.772461,64.854233 311.776276,57.611012 315.544037,57.525864 
	C317.988403,57.470623 317.383484,59.675144 317.595367,60.805927 
	C319.857849,72.880905 321.945892,84.988640 324.067139,97.089966 
	C324.582794,100.031563 325.044617,102.982605 325.612549,106.357300 
z"/>
<path fill="#0C0C0C" opacity="1.000000" stroke="none" 
	d="
M267.293030,73.385956 
	C267.714355,69.795692 267.974792,66.644753 268.448425,63.526184 
	C269.033325,59.674583 273.152893,58.010281 275.858154,60.812557 
	C277.151215,62.152008 278.260284,62.656879 279.917480,63.004097 
	C285.570831,64.188583 291.319305,65.742973 293.016632,72.196411 
	C294.866699,79.230438 290.899536,84.398285 286.119171,88.804947 
	C283.703522,91.031761 280.676544,92.595451 277.645416,94.649055 
	C279.962494,96.587151 282.162262,98.567368 284.510193,100.352699 
	C286.998962,102.245102 286.110321,103.940697 284.522278,105.778229 
	C282.989441,107.551880 281.630615,108.985214 279.325623,106.536324 
	C277.676788,104.784523 275.583496,103.451057 273.191254,101.532036 
	C272.879517,104.438255 272.497467,106.679840 272.431305,108.930702 
	C272.335388,112.192177 271.124634,113.621422 267.586212,113.266212 
	C263.885162,112.894684 264.080170,110.959106 264.354675,108.108917 
	C265.453369,96.699432 266.291931,85.264893 267.293030,73.385956 
z"/>
<path fill="#0B0B0B" opacity="1.000000" stroke="none" 
	d="
M372.311096,100.349358 
	C373.520844,87.844963 374.626617,75.790230 375.778473,63.739891 
	C375.912659,62.336075 375.473755,60.379375 377.352478,59.948521 
	C379.409882,59.476685 381.963684,59.073174 383.347656,61.018822 
	C384.400940,62.499565 385.544769,62.650066 387.009369,62.973419 
	C392.595154,64.206665 398.355469,65.526382 400.217834,71.982887 
	C402.127594,78.603683 398.517487,83.464737 394.310547,87.978050 
	C391.771576,90.701881 388.331879,92.140594 384.887695,94.581284 
	C387.192627,96.514259 389.314056,98.445251 391.594330,100.165726 
	C394.218384,102.145592 393.401337,103.836143 391.673126,105.924690 
	C389.945099,108.012993 388.523834,108.498611 386.424530,106.421974 
	C384.713196,104.729103 382.695740,103.345673 380.344391,101.445518 
	C380.050690,104.713966 379.694336,107.285004 379.617401,109.864372 
	C379.503540,113.681259 376.983673,113.313950 374.408630,113.157173 
	C371.315704,112.968864 371.161743,111.332375 371.666870,108.745705 
	C372.171844,106.159798 372.061493,103.453720 372.311096,100.349358 
z"/>
<path fill="#0F0F0F" opacity="1.000000" stroke="none" 
	d="
M221.486389,128.534027 
	C226.468567,127.476013 229.291229,129.543228 230.486908,133.838898 
	C231.787582,138.511734 232.367828,143.300613 231.762878,148.161713 
	C231.563614,149.763031 231.701462,151.737854 229.224869,151.653152 
	C226.686325,151.566315 226.071030,150.077133 226.028122,147.687576 
	C225.959732,143.878464 226.255249,140.009827 225.124496,136.273254 
	C224.796646,135.189896 224.626999,133.765274 223.062180,134.132980 
	C221.865845,134.414062 222.069656,135.668625 222.093216,136.656250 
	C222.188477,140.646896 222.264252,144.638123 222.383286,148.628052 
	C222.440002,150.529663 222.062454,151.792542 219.683380,151.784836 
	C217.615509,151.778137 216.461639,151.029312 216.367447,149.007217 
	C216.189392,145.185074 216.198837,141.353485 215.983597,137.534119 
	C215.905640,136.150742 216.043335,134.051041 213.896545,134.288544 
	C211.899719,134.509430 212.299408,136.453293 212.363297,137.913055 
	C212.530289,141.728058 212.623718,145.550278 212.942535,149.353180 
	C213.135834,151.659012 211.900208,152.085190 210.048416,152.371170 
	C207.777023,152.721985 207.476562,151.139587 207.345428,149.694824 
	C206.774521,143.405487 206.425964,137.095520 205.822708,130.809738 
	C205.544769,127.913681 206.986084,127.403915 209.342422,127.623489 
	C213.261292,127.988693 217.183289,128.320511 221.486389,128.534027 
z"/>
<path fill="#131313" opacity="1.000000" stroke="none" 
	d="
M301.439087,168.858948 
	C304.452850,178.106964 297.497711,191.534210 288.295166,194.713135 
	C284.714691,195.949966 284.447571,192.957672 284.194550,190.786865 
	C283.328735,183.358459 282.712494,175.901169 281.975769,168.457413 
	C281.697662,165.647354 281.204071,162.850616 281.079773,160.035828 
	C280.974487,157.651733 284.787476,155.548065 285.654755,157.260010 
	C287.355804,160.617722 290.584900,160.193420 293.085297,161.450439 
	C296.435944,163.134903 299.338898,165.227890 301.439087,168.858948 
z"/>
<path fill="#0F0F0F" opacity="1.000000" stroke="none" 
	d="
M404.638428,123.234787 
	C403.806061,122.154327 403.241669,121.322983 402.571198,120.588425 
	C401.136536,119.016586 402.040100,117.992455 403.227631,116.840683 
	C404.675934,115.435936 405.733337,115.757530 406.922424,117.173920 
	C409.273346,119.974205 411.869293,122.580742 414.077881,125.484924 
	C415.929840,127.920197 416.967224,127.386017 418.292480,125.095398 
	C419.369293,123.234138 420.844910,121.608078 422.004852,119.789192 
	C423.259491,117.821762 424.541870,117.587738 426.454865,119.012451 
	C428.402954,120.463295 427.874481,121.761177 426.558350,123.090042 
	C420.154755,129.555450 418.015625,137.360764 419.066589,146.246185 
	C419.220032,147.543320 418.941467,148.898972 418.803467,150.221359 
	C418.611786,152.058090 417.268799,152.069870 415.862183,152.067764 
	C414.270264,152.065399 413.292572,151.479050 413.345001,149.758636 
	C413.375366,148.761948 413.395782,147.754990 413.552612,146.773712 
	C415.054810,137.372864 412.477417,129.510864 404.638428,123.234787 
z"/>
<path fill="#121212" opacity="1.000000" stroke="none" 
	d="
M422.204987,141.913605 
	C422.255920,138.100754 423.470062,135.083725 425.051453,132.117310 
	C427.815369,126.932602 434.187561,127.642532 437.828888,130.382080 
	C443.229706,134.445419 443.470123,145.866013 438.599518,150.627548 
	C433.515594,155.597656 425.035767,153.486664 423.004486,146.703354 
	C422.580994,145.289154 422.456207,143.785507 422.204987,141.913605 
z"/>
<path fill="#131313" opacity="1.000000" stroke="none" 
	d="
M312.555481,177.341248 
	C312.857666,175.964600 312.924286,174.971786 312.943756,173.978027 
	C313.050018,168.564163 313.473114,168.335648 318.648376,170.080292 
	C321.266296,170.962845 324.556549,169.385971 326.622437,172.461700 
	C328.860321,175.793427 329.334717,179.561157 329.552673,183.370865 
	C329.684326,185.671875 329.356384,187.997253 329.273865,190.313065 
	C329.199188,192.408463 328.189545,193.239197 326.085571,193.023483 
	C324.009369,192.810577 323.123688,191.747040 323.311157,189.733109 
	C323.648529,186.108917 324.337463,182.493774 323.385712,178.855789 
	C323.084534,177.704636 322.809967,176.273209 321.516693,176.222122 
	C320.312958,176.174591 319.613373,177.469238 319.222839,178.575241 
	C318.084442,181.799301 318.417664,185.118225 318.682617,188.438660 
	C318.966827,192.000168 318.000580,194.380920 313.371094,193.109314 
	C310.529175,188.007355 311.401062,182.866623 312.555481,177.341248 
z"/>
<path fill="#101010" opacity="1.000000" stroke="none" 
	d="
M348.709961,172.334030 
	C352.012756,177.043411 352.188263,181.906906 350.848694,186.853973 
	C349.640472,191.316071 346.544952,193.893036 341.892151,194.137177 
	C337.293701,194.378448 333.393555,191.526581 332.441742,186.966354 
	C331.631500,183.084259 331.557343,179.136429 333.415558,175.338135 
	C336.971375,168.069885 341.939667,166.930099 348.709961,172.334030 
z"/>
<path fill="#131313" opacity="1.000000" stroke="none" 
	d="
M257.177673,179.078018 
	C257.232452,177.267761 257.227051,175.934982 257.341736,174.612625 
	C257.671906,170.805161 257.263641,166.985901 263.531677,170.205688 
	C266.162628,171.557159 270.254547,169.981171 272.061340,174.071274 
	C274.519775,179.636398 274.071106,185.438110 273.700897,191.228394 
	C273.593201,192.912659 272.102448,193.092911 270.663330,193.020874 
	C268.863403,192.930817 268.052002,192.128647 267.973389,190.229477 
	C267.836273,186.917130 268.959290,183.643433 268.136444,180.313065 
	C267.753387,178.762527 268.054688,176.428955 266.078400,176.333191 
	C263.854492,176.225479 263.381683,178.649612 263.218201,180.365845 
	C262.904205,183.662170 262.927887,186.999451 262.971222,190.317657 
	C262.996490,192.255630 262.693817,193.437454 260.318756,193.435379 
	C258.149231,193.433472 257.302094,192.579468 257.293793,190.526810 
	C257.278992,186.871201 257.215485,183.215759 257.177673,179.078018 
z"/>
<path fill="#0F0F0F" opacity="1.000000" stroke="none" 
	d="
M351.794739,128.497528 
	C359.559601,129.220032 363.029144,134.315582 361.976471,143.156250 
	C361.138824,150.190781 356.568420,154.139740 350.436157,153.127487 
	C344.045441,152.072571 340.728821,145.432434 343.023560,137.272568 
	C344.212555,133.044571 345.771454,128.570435 351.794739,128.497528 
z"/>
<path fill="#121212" opacity="1.000000" stroke="none" 
	d="
M273.368256,144.904541 
	C272.480988,147.749542 275.850525,152.223755 270.856384,152.405731 
	C265.729065,152.592545 268.369476,147.986435 268.140198,145.620377 
	C267.693298,141.008347 268.048920,136.318878 268.064789,131.661453 
	C268.069275,130.337952 267.893890,129.042435 269.657654,128.493561 
	C274.687469,126.928284 282.183289,130.799088 283.513275,135.977890 
	C284.588135,140.163193 285.111053,144.436157 284.280975,148.798828 
	C283.937195,150.605591 284.331024,152.457809 281.375244,152.225830 
	C278.376190,151.990433 278.417542,150.141602 278.545197,148.074677 
	C278.749237,144.770737 279.457550,141.471573 278.491119,138.172089 
	C278.162415,137.049820 277.951599,135.558792 276.689056,135.430649 
	C275.127991,135.272217 274.514618,136.877167 274.234650,138.066925 
	C273.745422,140.146011 273.635040,142.314240 273.368256,144.904541 
z"/>
<path fill="#121212" opacity="1.000000" stroke="none" 
	d="
M239.116333,151.873962 
	C233.465668,146.399002 232.963013,134.878601 237.839386,129.433548 
	C239.365982,127.728897 241.218491,126.695717 243.555573,127.217743 
	C246.113739,127.789162 247.568985,129.653381 247.858627,132.105133 
	C248.127106,134.377808 248.145096,136.763092 247.758667,139.010269 
	C247.206070,142.223572 244.306412,141.384415 242.148636,141.682358 
	C240.792877,141.869537 240.675232,142.740173 240.797699,143.821808 
	C240.927765,144.970505 240.978989,146.722946 242.283859,146.555725 
	C244.770706,146.237030 248.250610,145.683884 247.703934,148.727173 
	C247.172150,151.687592 243.404770,152.956161 239.899963,152.216507 
	C239.738983,152.182556 239.585388,152.113724 239.116333,151.873962 
z"/>
<path fill="#0F0F0F" opacity="1.000000" stroke="none" 
	d="
M386.080933,141.777832 
	C385.956482,137.421127 386.901764,133.747192 388.951111,130.406357 
	C390.350952,128.124283 392.380371,126.658714 395.193176,127.196968 
	C397.787659,127.693443 398.951630,129.682037 399.623108,132.081284 
	C401.168335,137.602325 399.578857,140.669785 394.383514,141.601654 
	C392.760254,141.892822 391.690399,142.329895 392.444916,144.042236 
	C392.905945,145.088593 392.371918,147.526123 395.061859,146.447159 
	C396.926666,145.699188 399.331207,146.206329 399.720490,147.893234 
	C400.228973,150.096603 397.739502,151.051743 395.954590,151.835587 
	C392.959930,153.150711 390.408600,152.417633 388.526581,149.699158 
	C386.970367,147.451263 386.324951,144.887833 386.080933,141.777832 
z"/>
<path fill="#101010" opacity="1.000000" stroke="none" 
	d="
M374.309326,153.167664 
	C368.384003,146.897705 367.024017,138.892578 364.403534,131.453903 
	C364.031097,130.396606 364.462219,129.331436 365.842682,129.593796 
	C367.493256,129.907501 369.392853,129.521912 370.139252,132.043564 
	C371.346893,136.123642 372.685822,140.213791 375.307739,144.696548 
	C376.995636,139.389771 378.522888,134.818344 379.883057,130.197739 
	C380.423737,128.360855 381.313721,127.689224 383.132050,128.372910 
	C384.553741,128.907471 385.901672,129.246292 385.285400,131.450531 
	C383.405243,138.175568 381.405121,144.841934 378.177368,151.071609 
	C377.447205,152.480850 376.475922,153.544067 374.309326,153.167664 
z"/>
<path fill="#131313" opacity="1.000000" stroke="none" 
	d="
M330.468292,140.936859 
	C329.739929,144.834488 330.975464,146.398178 334.581085,145.986557 
	C335.876434,145.838684 337.226898,146.116638 338.546661,146.253876 
	C340.427551,146.449478 340.495300,147.735291 340.186707,149.165390 
	C339.929230,150.358459 340.289886,152.036469 338.200348,151.922943 
	C337.537476,151.886932 336.875336,151.826309 336.212067,151.809753 
	C325.013733,151.529831 324.921783,151.529358 325.116974,140.463562 
	C325.236847,133.669983 325.753204,126.884140 325.955719,120.090775 
	C326.017181,118.028755 326.621033,117.018578 328.831451,117.100830 
	C330.564423,117.165321 331.714020,117.460815 331.590820,119.588539 
	C331.188416,126.537811 330.872803,133.492096 330.468292,140.936859 
z"/>
<path fill="#171717" opacity="1.000000" stroke="none" 
	d="
M384.644806,176.337158 
	C385.041687,174.299194 385.100830,172.633163 385.336700,170.992538 
	C385.581360,169.290924 386.413269,168.307129 388.401123,168.698746 
	C390.226685,169.058380 390.227417,170.220734 390.111877,171.645615 
	C389.789581,175.619217 389.258911,179.587402 389.769897,183.589935 
	C390.009705,185.468582 390.270050,187.597900 392.609131,187.581955 
	C394.979736,187.565796 396.007477,185.649048 396.014557,183.437363 
	C396.025146,180.114197 395.896332,176.787720 395.724823,173.467926 
	C395.626251,171.559647 395.300049,169.713104 398.153320,169.680725 
	C400.711823,169.651703 400.550507,171.407669 400.595245,173.090561 
	C400.732422,178.247208 400.836700,183.405014 401.016174,188.560181 
	C401.136047,192.004517 400.614380,194.486176 396.303955,192.285339 
	C395.880646,192.069199 395.374023,191.963913 394.895233,191.916458 
	C386.389343,191.073471 385.373077,190.036530 385.011963,181.434113 
	C383.873749,179.706467 383.580536,178.285645 384.644806,176.337158 
z"/>
<path fill="#171717" opacity="1.000000" stroke="none" 
	d="
M444.078796,131.336914 
	C444.393097,128.928146 444.727356,127.308548 447.477753,127.944565 
	C449.910400,128.507095 449.022949,130.179871 448.901215,131.457321 
	C448.523285,135.422836 448.068878,139.384796 448.699066,143.348129 
	C448.953857,144.950302 449.290222,146.947693 451.435059,146.899155 
	C453.526917,146.851822 454.637177,145.265152 454.860199,143.258301 
	C455.246979,139.777939 454.793152,136.319763 454.508575,132.848495 
	C454.377167,131.245499 453.769257,129.046432 456.785461,128.893280 
	C459.887665,128.735779 459.175354,130.862473 459.244232,132.551895 
	C459.460175,137.850632 459.682404,143.149689 459.813721,148.450821 
	C459.844299,149.685196 460.274231,151.152893 458.659332,151.931992 
	C453.547211,154.398422 444.544373,149.461731 444.113770,143.739532 
	C443.815735,139.778793 444.030273,135.779465 444.078796,131.336914 
z"/>
<path fill="#121212" opacity="1.000000" stroke="none" 
	d="
M256.254517,134.045120 
	C253.796616,130.509918 254.763336,129.092468 258.657654,129.123840 
	C263.340637,129.161575 265.906281,131.252777 266.285126,135.839325 
	C266.642975,140.171280 265.982544,144.451096 265.167938,148.703369 
	C264.977386,149.698044 264.865173,150.544479 263.648956,150.953064 
	C260.820953,151.903137 252.268585,148.779312 251.046677,146.227386 
	C249.091293,142.143631 250.348083,139.196991 255.657043,135.999573 
	C256.497864,135.435501 257.330444,135.111389 256.254517,134.045120 
z"/>
<path fill="#121212" opacity="1.000000" stroke="none" 
	d="
M383.675964,180.743317 
	C383.328400,182.639496 383.276306,184.152283 382.838379,185.543594 
	C382.164032,187.685883 383.636108,190.922256 380.320160,191.758453 
	C376.013275,192.844513 369.190521,189.923386 368.000427,186.679428 
	C366.339355,182.151642 368.105804,179.039780 372.605499,176.934357 
	C373.441772,176.412689 374.535339,176.606674 374.140259,175.291916 
	C372.576202,174.067993 371.386597,172.692200 372.176880,171.015213 
	C372.916229,169.446320 374.798889,169.894440 376.246613,169.925308 
	C379.768188,170.000366 382.297760,171.479752 383.228333,175.510712 
	C384.065186,177.286667 384.054993,178.783478 383.675964,180.743317 
z"/>
<path fill="#090909" opacity="1.000000" stroke="none" 
	d="
M310.997986,116.831741 
	C316.789673,116.921272 317.230377,117.569107 314.709290,122.166389 
	C313.819489,123.789024 314.261078,125.391495 314.244537,126.994186 
	C314.187927,132.477997 314.231812,137.963043 314.268982,143.447403 
	C314.276794,144.599823 314.169312,145.839523 314.540009,146.888870 
	C316.824707,153.356354 316.868073,153.111755 310.180542,153.029739 
	C306.966553,152.990311 305.815247,151.068390 307.096802,149.213470 
	C309.989258,145.026871 308.728302,140.640442 308.617523,136.397980 
	C308.476013,130.979782 309.871185,125.454437 307.036224,120.104263 
	C305.623383,117.437828 307.973907,116.488342 310.997986,116.831741 
z"/>
<path fill="#131313" opacity="1.000000" stroke="none" 
	d="
M364.454834,171.986496 
	C365.512573,175.425125 365.788910,178.103897 360.720703,177.155869 
	C362.278137,180.386414 364.442047,182.646317 364.939178,185.651688 
	C365.414551,188.525558 364.620148,191.093307 362.013123,192.511536 
	C359.739838,193.748215 357.467560,193.107590 355.709930,191.148499 
	C354.571014,189.879074 353.606384,188.320999 353.879578,186.657150 
	C354.259888,184.341125 356.640778,185.493668 358.219330,184.689102 
	C357.318848,181.749634 354.717682,179.506058 354.431061,176.298401 
	C354.137787,173.016052 355.203461,170.263321 358.286713,168.903595 
	C361.033722,167.692139 363.106750,168.914291 364.454834,171.986496 
z"/>
<path fill="#0C0C0C" opacity="1.000000" stroke="none" 
	d="
M294.571777,137.212036 
	C295.602997,140.036713 297.779602,142.101974 298.109650,145.052399 
	C298.586670,149.316315 296.185547,152.386505 292.522614,152.150436 
	C289.022156,151.924835 287.496094,149.386215 287.105255,146.544037 
	C286.677002,143.429718 290.004669,144.851028 291.619354,143.694000 
	C289.746429,140.344162 286.947754,137.222946 287.835144,132.890778 
	C288.339783,130.427216 289.619904,128.588715 292.104614,127.859901 
	C293.874481,127.340752 295.391876,127.934891 296.554291,129.351532 
	C298.145935,131.291290 298.625305,133.497330 297.746887,135.850266 
	C297.615143,136.203171 296.602600,136.227249 295.654663,136.545319 
	C295.311798,136.687210 294.853851,136.575119 294.853851,136.575119 
	C294.853851,136.575119 294.612030,136.979660 294.571777,137.212036 
z"/>
<path fill="#171717" opacity="1.000000" stroke="none" 
	d="
M409.484314,192.617859 
	C407.123199,193.164368 405.988464,192.609741 405.702698,190.378723 
	C404.903198,184.136734 403.968323,177.912125 403.095734,171.679413 
	C403.050110,171.353775 403.082092,171.016663 403.084930,170.684937 
	C403.105255,168.319794 406.054932,168.454361 406.226227,168.679596 
	C409.119019,172.483582 414.574493,165.793915 416.693298,171.224167 
	C417.267914,172.696793 416.644989,174.819931 414.324219,174.722839 
	C409.385162,174.516251 409.515778,177.486542 410.072357,180.956558 
	C410.570770,184.063705 410.963074,187.189392 411.328064,190.315552 
	C411.452057,191.377151 411.076385,192.284485 409.484314,192.617859 
z"/>
<path fill="#171717" opacity="1.000000" stroke="none" 
	d="
M311.209534,191.593750 
	C307.317902,193.637222 305.257019,192.848328 305.239777,188.542938 
	C305.223938,184.588394 305.084229,180.634415 305.057465,176.679794 
	C305.044708,174.793198 304.468567,172.695938 307.614838,172.424866 
	C310.958252,172.136826 310.156677,174.636780 310.839355,176.653809 
	C312.774384,181.681244 312.095795,186.451126 311.209534,191.593750 
z"/>
<path fill="#1C1C1C" opacity="1.000000" stroke="none" 
	d="
M254.216522,172.723480 
	C255.632782,178.674774 255.586609,184.416092 255.538422,190.159103 
	C255.522400,192.069199 254.526962,192.707947 252.714035,192.696182 
	C250.999130,192.685059 249.669983,192.325317 249.806839,190.302811 
	C250.184814,184.717300 248.360657,179.154694 250.006943,173.316788 
	C251.378754,171.896667 252.605103,171.864960 254.216522,172.723480 
z"/>
<path fill="#143735" opacity="1.000000" stroke="none" 
	d="
M254.233261,172.604370 
	C253.343964,173.031281 252.192551,173.058105 250.696045,173.076263 
	C251.200470,171.980804 250.286362,171.482117 249.737564,170.677933 
	C248.771545,169.262375 248.668884,167.382660 249.660721,166.110794 
	C250.603500,164.901825 252.495163,165.099472 253.783707,165.718384 
	C255.631638,166.605988 254.903687,168.534485 254.825150,170.066116 
	C254.787949,170.791519 254.270813,171.492310 254.233261,172.604370 
z"/>
<path fill="#DEDEDE" opacity="1.000000" stroke="none" 
	d="
M311.179321,192.082886 
	C310.875244,187.285690 310.844940,182.601395 310.906067,177.458801 
	C311.299988,176.990356 311.602478,176.980240 312.358887,176.963989 
	C312.883850,181.989899 312.954865,187.021927 313.034302,192.518433 
	C312.512817,192.720520 311.982941,192.458160 311.179321,192.082886 
z"/>
<path fill="#0B0B0B" opacity="1.000000" stroke="none" 
	d="
M308.010925,165.576553 
	C311.454041,166.120117 310.304016,168.404587 310.070648,169.924622 
	C309.796936,171.707642 308.002777,171.074509 306.775269,171.134186 
	C304.910919,171.224854 304.764709,169.927170 304.686462,168.498672 
	C304.573669,166.440186 305.310150,165.320480 308.010925,165.576553 
z"/>
<path fill="#B2B2B2" opacity="1.000000" stroke="none" 
	d="
M383.794220,181.184738 
	C383.447815,179.704208 383.342255,178.227295 383.290283,176.307556 
	C383.689178,175.882797 384.034515,175.900864 384.642334,175.936493 
	C384.980499,177.366531 385.056152,178.778976 385.041748,180.607666 
	C384.951691,181.023895 384.472198,180.988037 384.472198,180.988037 
	C384.472198,180.988037 384.035065,181.188339 383.794220,181.184738 
z"/>
<path fill="#D9D9D9" opacity="1.000000" stroke="none" 
	d="
M256.079529,134.135101 
	C257.653351,134.465851 259.741394,133.097610 261.220764,135.425369 
	C259.792450,136.389969 258.223816,135.800583 256.398254,135.914200 
	C255.998154,135.388779 256.025238,134.932755 256.079529,134.135101 
z"/>
<path fill="#B2B2B2" opacity="1.000000" stroke="none" 
	d="
M373.892212,175.359207 
	C375.527954,174.552170 377.119019,173.970108 378.513611,176.541321 
	C376.779541,176.692596 375.307251,176.821030 373.388672,176.889786 
	C373.242462,176.422623 373.542480,176.015152 373.892212,175.359207 
z"/>
<path fill="#B0D473" opacity="1.000000" stroke="none" 
	d="
M197.082153,431.568665 
	C198.881607,431.015289 200.507233,431.904572 202.557465,432.630249 
	C203.062225,434.638062 202.236145,435.874481 200.446320,435.767883 
	C198.224716,435.635559 197.886292,433.516388 197.082153,431.568665 
z"/>
<path fill="#B0D473" opacity="1.000000" stroke="none" 
	d="
M213.594498,422.001770 
	C212.613281,420.603546 211.968628,419.125275 211.261688,417.313812 
	C212.960968,417.098633 215.015427,416.698090 215.757660,418.965332 
	C216.266449,420.519531 215.332932,421.423279 213.594498,422.001770 
z"/>
<path fill="#22986D" opacity="1.000000" stroke="none" 
	d="
M223.976471,487.580444 
	C223.038223,490.901764 221.055893,493.186493 219.351959,495.695282 
	C217.174072,498.901794 214.679703,500.542206 210.429810,500.030365 
	C213.490494,494.370300 217.037933,488.783722 222.977112,484.880890 
	C223.496063,485.608246 223.700089,486.392639 223.976471,487.580444 
z"/>
<path fill="#EDEEEC" opacity="1.000000" stroke="none" 
	d="
M223.685455,481.460815 
	C225.365463,481.936798 225.170029,483.195709 224.250198,484.775269 
	C223.865067,483.947998 223.740067,482.900574 223.685455,481.460815 
z"/>
<path fill="#EDEEEC" opacity="1.000000" stroke="none" 
	d="
M222.066803,500.975525 
	C223.022568,500.374664 224.160080,500.074677 225.661865,499.765198 
	C225.233414,501.421387 224.265030,502.650726 222.066803,500.975525 
z"/>
<path fill="#D9D9D9" opacity="1.000000" stroke="none" 
	d="
M311.780426,83.919296 
	C309.339355,84.269821 307.664093,84.348732 308.269409,81.352600 
	C309.079102,77.344986 309.661072,73.291374 311.525269,69.087616 
	C312.277588,73.704666 313.054260,78.318260 313.710297,82.948952 
	C313.743073,83.180283 312.729279,83.559883 311.780426,83.919296 
z"/>
<path fill="#F0F0F0" opacity="1.000000" stroke="none" 
	d="
M280.841827,70.901566 
	C286.357513,73.719780 286.875824,75.719688 283.483002,80.188942 
	C281.161804,83.246552 278.342865,85.647903 274.274780,86.826241 
	C274.616364,82.588615 275.150848,78.656921 275.189362,74.720367 
	C275.227997,70.778801 276.562256,69.208054 280.841827,70.901566 
z"/>
<path fill="#F0F0F0" opacity="1.000000" stroke="none" 
	d="
M392.709778,74.407440 
	C392.004272,81.079666 387.583588,84.140343 382.060852,86.843117 
	C381.372772,81.656609 382.608368,77.021805 382.787048,72.346870 
	C382.867615,70.238739 384.039581,70.011559 385.822113,70.408356 
	C388.440186,70.991158 391.032806,71.514885 392.709778,74.407440 
z"/>
<path fill="#F2F2F2" opacity="1.000000" stroke="none" 
	d="
M297.174866,175.873184 
	C296.824432,177.371399 296.654724,178.564072 296.098053,179.534851 
	C294.621826,182.109268 292.797211,185.844437 290.186096,185.525604 
	C287.934875,185.250687 289.067078,181.011963 288.690735,178.540955 
	C288.195038,175.286102 288.196655,171.942505 287.536163,168.729218 
	C286.796936,165.132889 288.495544,165.457214 290.691589,166.437729 
	C294.574554,168.171356 297.224243,170.871811 297.174866,175.873184 
z"/>
<path fill="#F0F0F0" opacity="1.000000" stroke="none" 
	d="
M434.708954,146.719696 
	C432.564178,148.473862 430.736603,148.572800 429.273834,146.529892 
	C427.036133,143.404739 427.256866,140.127930 428.578217,136.619614 
	C429.549927,134.039520 431.754486,134.666031 433.455414,134.330627 
	C434.968872,134.032196 435.540405,135.653122 436.011536,136.915237 
	C437.260681,140.261292 436.678955,143.413208 434.708954,146.719696 
z"/>
<path fill="#F0F0F0" opacity="1.000000" stroke="none" 
	d="
M346.049805,181.854736 
	C345.774231,183.554306 345.641754,184.887863 345.189789,186.102524 
	C344.571655,187.763702 343.211456,188.944687 341.462097,188.917618 
	C339.656128,188.889679 338.586945,187.468811 337.937897,185.837402 
	C336.773468,182.910583 336.970459,180.097900 338.289795,177.208649 
	C339.393646,174.791214 341.757202,174.911362 343.279114,175.279282 
	C346.281158,176.005005 345.998352,178.959625 346.049805,181.854736 
z"/>
<path fill="#EDEEEC" opacity="1.000000" stroke="none" 
	d="
M354.137238,147.296753 
	C348.796021,148.986633 348.098602,145.387970 347.977234,142.027847 
	C347.860992,138.810791 347.261597,135.068451 352.595581,134.516418 
	C355.355774,134.230743 355.965790,135.636307 356.266022,137.258636 
	C356.897736,140.671936 357.351257,144.224518 354.137238,147.296753 
z"/>
<path fill="#D9D9D9" opacity="1.000000" stroke="none" 
	d="
M260.899597,144.486420 
	C258.612518,146.230423 256.811462,145.642349 255.988419,143.415543 
	C255.302902,141.560806 256.790253,140.667709 258.464325,140.553772 
	C261.103638,140.374115 261.482025,141.996277 260.899597,144.486420 
z"/>
<path fill="#DEDEDE" opacity="1.000000" stroke="none" 
	d="
M376.909180,186.158173 
	C374.691864,186.049637 372.571320,185.909515 372.963654,183.298080 
	C373.224915,181.559097 374.822906,180.817780 376.371185,181.289490 
	C379.300201,182.181915 378.281097,184.159363 376.909180,186.158173 
z"/>
<path fill="#FAFAFA" opacity="1.000000" stroke="none" 
	d="
M294.728699,137.257263 
	C294.089233,136.829788 293.724457,136.245712 295.147034,136.494385 
	C295.183136,136.814850 295.054474,136.942474 294.728699,137.257263 
z"/>
</svg>